<svg width="24" height="24" viewBox="0 0 24 24" fill="none" xmlns="http://www.w3.org/2000/svg">
<mask id="mask0_1201_543" style="mask-type:alpha" maskUnits="userSpaceOnUse" x="0" y="0" width="24" height="24">
<rect width="24" height="24" fill="#D9D9D9"/>
</mask>
<g mask="url(#mask0_1201_543)">
<path d="M12 19C12.35 19 12.6457 18.879 12.887 18.637C13.129 18.3957 13.25 18.1 13.25 17.75V14.5H14.25C14.3833 14.5 14.5 14.45 14.6 14.35C14.7 14.25 14.75 14.1333 14.75 14V9.9C14.75 9.45 14.5127 9.10433 14.038 8.863C13.5627 8.621 12.8833 8.5 12 8.5C11.1167 8.5 10.4377 8.621 9.963 8.863C9.48767 9.10433 9.25 9.45 9.25 9.9V14C9.25 14.1333 9.3 14.25 9.4 14.35C9.5 14.45 9.61667 14.5 9.75 14.5H10.75V17.75C10.75 18.1 10.871 18.3957 11.113 18.637C11.3543 18.879 11.65 19 12 19ZM12 22C10.6333 22 9.34167 21.7373 8.125 21.212C6.90833 20.6873 5.846 19.9707 4.938 19.062C4.02933 18.154 3.31267 17.0917 2.788 15.875C2.26267 14.6583 2 13.3667 2 12C2 10.6167 2.26267 9.321 2.788 8.113C3.31267 6.90433 4.02933 5.846 4.938 4.938C5.846 4.02933 6.90833 3.31233 8.125 2.787C9.34167 2.26233 10.6333 2 12 2C13.3833 2 14.679 2.26233 15.887 2.787C17.0957 3.31233 18.154 4.02933 19.062 4.938C19.9707 5.846 20.6873 6.90433 21.212 8.113C21.7373 9.321 22 10.6167 22 12C22 13.3667 21.7373 14.6583 21.212 15.875C20.6873 17.0917 19.9707 18.154 19.062 19.062C18.154 19.9707 17.0957 20.6873 15.887 21.212C14.679 21.7373 13.3833 22 12 22ZM12 20C14.2167 20 16.1043 19.221 17.663 17.663C19.221 16.1043 20 14.2167 20 12C20 9.78333 19.221 7.89567 17.663 6.337C16.1043 4.779 14.2167 4 12 4C9.78333 4 7.896 4.779 6.338 6.337C4.77933 7.89567 4 9.78333 4 12C4 14.2167 4.77933 16.1043 6.338 17.663C7.896 19.221 9.78333 20 12 20ZM12 8C12.4333 8 12.7917 7.85833 13.075 7.575C13.3583 7.29167 13.5 6.93333 13.5 6.5C13.5 6.06667 13.3583 5.70833 13.075 5.425C12.7917 5.14167 12.4333 5 12 5C11.5667 5 11.2083 5.14167 10.925 5.425C10.6417 5.70833 10.5 6.06667 10.5 6.5C10.5 6.93333 10.6417 7.29167 10.925 7.575C11.2083 7.85833 11.5667 8 12 8Z" fill="white"/>
</g>
</svg>
