<svg width="24" height="24" viewBox="0 0 24 24" fill="none" xmlns="http://www.w3.org/2000/svg">
<path d="M12.5314 7.40583C12.8937 7.04355 12.8805 6.45148 12.4965 6.11229C10.9753 4.76859 9.49417 3.60302 8.12774 2.66046C7.77958 2.4203 7.31107 2.46919 7.01199 2.76827C6.60911 3.17116 6.68205 3.84342 7.15056 4.16767C8.43172 5.05434 9.83467 6.15797 11.2872 7.43979C11.6468 7.75716 12.1922 7.745 12.5314 7.40583Z" fill="white"/>
<path fill-rule="evenodd" clip-rule="evenodd" d="M15.7937 18.3633C16.1127 18.0442 16.618 18.0117 16.9817 18.2789C17.8117 18.8887 18.6003 19.4172 19.3297 19.8549C20.5153 20.5662 21.5278 19.5538 20.8165 18.3682C20.3788 17.6387 19.8503 16.8502 19.2404 16.0201C18.9733 15.6565 19.0058 15.1512 19.3248 14.8321C19.7084 14.4486 20.3427 14.4888 20.6643 14.9257C23.3985 18.6397 24.6656 21.6797 23.6534 22.6919C22.6412 23.7041 19.6013 22.4369 15.8872 19.7028C15.4504 19.3812 15.4101 18.7468 15.7937 18.3633ZM22.2025 21.7238C22.204 21.7249 22.2011 21.7227 22.2025 21.7238V21.7238ZM22.6854 21.241C22.6865 21.2424 22.6842 21.2395 22.6854 21.241V21.241Z" fill="white"/>
<path fill-rule="evenodd" clip-rule="evenodd" d="M3.27335 4.47552C3.55915 4.18972 3.54977 3.61935 3.37468 3.25506C3.06386 2.60836 3.5699 2.10232 4.2166 2.41314C4.58089 2.58823 5.15126 2.59761 5.43706 2.31181C5.85897 1.8899 5.76737 1.18029 5.23412 0.912608C3.35656 -0.0298977 1.93875 -0.284058 1.30812 0.346578C0.677482 0.977215 0.931642 2.39502 1.87415 4.27258C2.14183 4.80583 2.85144 4.89743 3.27335 4.47552ZM2.75902 1.31465C2.75756 1.31351 2.76048 1.31579 2.75902 1.31465V1.31465ZM2.27619 1.79748C2.27505 1.79602 2.27733 1.79894 2.27619 1.79748V1.79748Z" fill="white"/>
<path d="M0.19721 1.71143C0.460157 1.44848 0.886478 1.44848 1.14942 1.71143L2.99037 3.55238C3.25332 3.81532 3.25332 4.24164 2.99037 4.50459C2.72743 4.76754 2.30111 4.76754 2.03816 4.50459L0.19721 2.66364C-0.0657367 2.4007 -0.0657367 1.97437 0.19721 1.71143Z" fill="white"/>
<path d="M20.2234 11.5849C20.7946 11.5849 21.2641 12.0496 21.1957 12.6166C21.0342 13.9558 20.5599 15.2435 19.8052 16.373C18.8582 17.7903 17.5122 18.895 15.9373 19.5473C14.3625 20.1996 12.6296 20.3703 10.9578 20.0377C9.62543 19.7727 8.37953 19.1975 7.31841 18.3648C6.86908 18.0121 6.87243 17.3516 7.27632 16.9477C7.6802 16.5438 8.33114 16.5517 8.79351 16.8871C9.55524 17.4396 10.4305 17.8239 11.3613 18.009C12.6319 18.2618 13.9489 18.1321 15.1458 17.6363C16.3426 17.1405 17.3656 16.301 18.0853 15.2239C18.6126 14.4347 18.9598 13.5441 19.1077 12.6148C19.1976 12.0507 19.6523 11.5849 20.2234 11.5849Z" fill="white"/>
<path d="M5.05494 11.5849C4.48376 11.5849 4.01432 11.1202 4.0827 10.5531C4.24418 9.21392 4.71847 7.92623 5.4732 6.7967C6.42021 5.3794 7.76623 4.27475 9.34105 3.62244C10.9159 2.97012 12.6488 2.79945 14.3206 3.132C15.653 3.39702 16.8989 3.97218 17.96 4.80494C18.4093 5.15757 18.406 5.8181 18.0021 6.22198C17.5982 6.62587 16.9472 6.61797 16.4849 6.28262C15.7231 5.73015 14.8479 5.34583 13.917 5.16068C12.6465 4.90795 11.3295 5.03766 10.1326 5.53342C8.93574 6.02917 7.91277 6.86871 7.19304 7.94585C6.66577 8.73497 6.3186 9.62564 6.17064 10.5549C6.08082 11.119 5.62612 11.5849 5.05494 11.5849Z" fill="white"/>
</svg>
