<svg width="350" height="350" viewBox="0 0 350 350" fill="none" xmlns="http://www.w3.org/2000/svg">
<path fill-rule="evenodd" clip-rule="evenodd" d="M60 0C26.8629 0 0 26.8629 0 60V165C0 170.523 4.47715 175 10 175H15C20.5228 175 25 179.477 25 185V265C25 270.523 20.5228 275 15 275H10C4.47715 275 0 279.477 0 285V350H75V100V75C75 61.1929 86.1929 50 100 50L262.5 50C269.404 50 275 55.5965 275 62.5C275 69.4036 280.596 75 287.5 75L337.5 75C344.404 75 350 80.5965 350 87.5C350 94.397 344.414 99.9893 337.52 100H160C126.863 100 100 126.863 100 160V350H120V160C120 137.909 137.909 120 160 120H350V87.5V0H60Z" fill="white"/>
</svg>
