<svg width="350" height="350" viewBox="0 0 350 350" fill="none" xmlns="http://www.w3.org/2000/svg">
<path fill-rule="evenodd" clip-rule="evenodd" d="M0 350H290C323.137 350 350 323.137 350 290V0H325V87.5C325 94.4036 319.404 100 312.5 100C305.596 100 300 94.4036 300 87.5V0H230V190C230 212.091 212.091 230 190 230H0V250H162.5C169.404 250 175 255.596 175 262.5C175 269.404 169.404 275 162.5 275H0V300H240C273.137 300 300 273.137 300 240V172.5C300 165.596 305.596 160 312.5 160C319.404 160 325 165.596 325 172.5V300C325 313.807 313.807 325 300 325H0V350Z" fill="white"/>
</svg>
