<svg width="350" height="350" viewBox="0 0 350 350" fill="none" xmlns="http://www.w3.org/2000/svg">
<path fill-rule="evenodd" clip-rule="evenodd" d="M0 0V66C0 71.5229 4.47715 76 10 76H15C20.5228 76 25 80.4771 25 86V216C25 221.523 20.5228 226 15 226H10C4.47715 226 0 230.477 0 236V290C0 323.137 26.8629 350 60 350H350V325H337.5C330.596 325 325 319.404 325 312.5C325 305.596 330.596 300 337.5 300H350V275H187.5C180.596 275 175 280.596 175 287.5C175 294.404 169.404 300 162.5 300H75C61.1929 300 50 288.807 50 275L50 188.5C50 181.596 55.5965 176 62.5 176C69.4036 176 75 170.404 75 163.5L75 0H0ZM100 0V190C100 223.137 126.863 250 160 250H350V230H160C137.909 230 120 212.091 120 190V0H100Z" fill="white"/>
</svg>
