<svg width="350" height="350" viewBox="0 0 350 350" fill="none" xmlns="http://www.w3.org/2000/svg">
<path fill-rule="evenodd" clip-rule="evenodd" d="M350 350V185C350 179.477 345.523 175 340 175H335C329.477 175 325 179.477 325 185V350H350ZM300 350V110C300 76.8629 273.137 50 240 50H187.5C180.596 50 175 44.4036 175 37.5C175 30.5964 180.596 25 187.5 25L300 25C313.807 25 325 36.1929 325 50V65C325 70.5229 329.477 75 335 75H340C345.523 75 350 70.5229 350 65V60C350 26.8629 323.137 0 290 0H0V87.5V120H190C212.091 120 230 137.909 230 160V350H300Z" fill="white"/>
</svg>
