<svg width="298" height="198" viewBox="0 0 298 198" fill="none" xmlns="http://www.w3.org/2000/svg">
<path fill-rule="evenodd" clip-rule="evenodd" d="M12.9529 61.4838C13.3846 60.7688 13.8261 60.0601 14.2773 59.3576L14.2824 59.3497C16.0969 56.5257 18.0648 53.8103 20.1753 51.2151C25.8283 44.2641 32.5046 38.1751 39.9986 33.1677C51.477 25.4982 64.5658 20.5719 78.2525 18.77C91.9393 16.9681 105.857 18.3389 118.929 22.7763C130.65 26.7551 141.41 33.1037 150.546 41.4103C152.293 42.9986 152.286 45.7138 150.617 47.3832C148.947 49.0527 146.248 49.0435 144.493 47.4639C140.084 43.4949 135.262 40.0269 130.118 37.1155C129.406 37.1022 128.709 37.4799 128.339 38.1508L128.017 38.7339C127.609 39.4737 127.716 40.3572 128.212 40.9859C131.831 43.0498 135.289 45.41 138.548 48.0487C148.008 55.71 155.522 65.5017 160.473 76.6231C165.425 87.7445 167.674 99.88 167.037 112.037C166.735 117.799 165.789 123.488 164.229 129.002C164.433 129.613 164.917 130.118 165.577 130.314L166.216 130.503C167.16 130.783 168.148 130.339 168.564 129.489C169.069 127.644 169.509 125.777 169.885 123.89C173.461 105.91 170.861 87.2932 162.577 71.032C161.506 68.9282 162.195 66.318 164.24 65.1375C166.285 63.957 168.909 64.6534 169.991 66.7518C179.306 84.8142 182.252 105.544 178.27 125.558C174.011 146.973 162.111 166.109 144.788 179.402C127.466 192.694 105.902 199.235 84.1136 197.807C63.7507 196.472 44.4902 188.262 29.454 174.59L29.4348 174.572C28.8839 174.071 28.3391 173.563 27.8005 173.048C26.9965 172.279 26.998 171.002 27.7847 170.215L29.3832 168.617L29.3881 168.612L30.906 167.094C28.3335 164.521 25.9249 161.777 23.6983 158.875C17.0065 150.154 12.112 140.213 9.27619 129.63L5.01232 130.772C3.93777 131.06 2.83091 130.423 2.5671 129.342C-0.855701 115.32 -0.855701 100.68 2.5671 86.6577C2.83091 85.577 3.93777 84.9396 5.01232 85.2276L9.27619 86.37C11.1521 79.369 13.9244 72.6651 17.5076 66.4183L13.6785 64.2219C12.7135 63.6684 12.378 62.4362 12.9529 61.4838ZM157.579 145.203C157.327 145.661 157.07 146.117 156.808 146.571C150.721 157.114 142.225 166.067 132.015 172.697C121.805 179.328 110.171 183.448 98.0636 184.72C95.2447 185.016 92.4187 185.156 89.5984 185.142C88.816 185.418 88.2452 186.148 88.2271 187.021L88.2175 187.483C88.1981 188.42 88.8218 189.222 89.6839 189.449C107.674 189.52 125.236 183.627 139.583 172.618C148.459 165.808 155.761 157.303 161.127 147.687C161.491 146.765 161.1 145.697 160.198 145.219L159.79 145.002C159.059 144.614 158.198 144.722 157.579 145.203ZM63.7781 178.941C64.4964 178.849 65.1387 178.358 65.3981 177.624L66.0692 175.725C66.4398 174.676 67.5898 174.129 68.6489 174.469C77.8752 177.433 87.6319 178.448 97.2975 177.432C108.255 176.28 118.784 172.552 128.024 166.551C128.324 166.356 128.623 166.158 128.921 165.958C129.93 164.888 130.043 163.202 129.135 161.952C128.589 161.199 127.78 160.752 126.918 160.634C116.471 167.976 103.739 172.286 89.9999 172.286C54.4959 172.286 25.7142 143.504 25.7142 108C25.7142 73.0022 53.681 44.5364 88.4853 43.7317C89.3376 43.1289 89.8975 42.1519 89.898 41.0408C89.8985 39.8084 89.2105 38.7327 88.1983 38.2089C84.0057 38.3172 79.823 38.8032 75.7014 39.6656C74.6125 39.8934 73.5259 39.2295 73.2667 38.1477L72.7975 36.1888C72.6161 35.4315 72.0285 34.8763 71.3238 34.71C67.8341 35.5992 64.4027 36.7391 61.0568 38.125C50.5136 42.4921 41.0977 49.1875 33.5124 57.707C33.509 57.7528 33.5034 57.7985 33.4958 57.8436C33.3856 58.5032 33.6167 59.2059 34.1627 59.6784L35.6859 60.9966C36.5271 61.7245 36.6163 62.995 35.9129 63.8568C27.3369 74.3644 21.9911 87.165 20.5682 100.702C19.1729 113.978 21.6152 127.345 27.5612 139.232C28.0589 140.227 27.6937 141.447 26.7136 141.973L24.9388 142.926C24.2527 143.294 23.8655 144.004 23.8841 144.727C25.6848 147.969 27.7266 151.083 29.997 154.042C37.0592 163.245 46.1441 170.701 56.5487 175.832C58.9084 176.996 61.3216 178.033 63.7781 178.941ZM150.257 108C150.257 141.279 123.279 168.257 89.9999 168.257C56.7208 168.257 29.7428 141.279 29.7428 108C29.7428 74.7208 56.7208 47.7428 89.9999 47.7428C123.279 47.7428 150.257 74.7208 150.257 108Z" fill="white"/>
<path fill-rule="evenodd" clip-rule="evenodd" d="M186.546 29.138C186.262 29.6116 186.426 30.2238 186.905 30.5L190.109 32.35L190.112 32.3519L192.596 33.7857C193.074 34.0618 193.237 34.673 192.97 35.1565C189.883 40.7515 187.853 46.8975 187.011 53.2872C186.17 59.6769 186.541 66.139 188.074 72.3422C188.207 72.8784 187.891 73.4265 187.358 73.5694L186.516 73.795C185.983 73.9379 185.433 73.6215 185.3 73.0855C183.323 65.1215 183.171 56.7881 184.885 48.7174C185.212 47.1777 184.318 45.6159 182.797 45.2085C181.277 44.8011 179.707 45.7025 179.372 47.2405C176.775 59.1721 177.877 71.6378 182.567 82.961C187.257 94.2842 195.293 103.878 205.566 110.478C206.891 111.329 208.638 110.856 209.425 109.493C210.212 108.13 209.74 106.393 208.42 105.536C201.501 101.041 195.716 95.0411 191.483 88.0114C191.198 87.5383 191.362 86.9261 191.841 86.65L192.596 86.2142C193.074 85.938 193.685 86.1025 193.97 86.5754C197.859 93.0189 203.129 98.5525 209.428 102.761C213.845 105.713 218.671 107.947 223.726 109.408C224.257 109.561 224.573 110.109 224.43 110.642L223.688 113.412L223.687 113.416L222.73 116.989C222.587 117.523 222.903 118.072 223.439 118.206C238.204 121.9 253.824 119.844 267.129 112.454C267.612 112.186 267.776 111.574 267.5 111.095L266.357 109.116C266.081 108.638 266.245 108.027 266.719 107.742C267.474 107.288 268.219 106.815 268.953 106.325C271.717 104.478 274.303 102.392 276.682 100.097C277.08 99.7131 277.712 99.7124 278.103 100.103L279.719 101.719C280.11 102.11 280.744 102.11 281.127 101.713C287.288 95.3437 291.965 87.6853 294.816 79.2863C297.774 70.5714 298.688 61.2929 297.487 52.1684C296.285 43.0439 293.001 34.318 287.888 26.6658C282.96 19.2908 276.461 13.1037 268.862 8.5457C268.388 8.26163 267.776 8.42622 267.5 8.90451L266.357 10.884C266.081 11.3623 265.47 11.5253 264.987 11.2578C263.685 10.5373 262.353 9.86793 260.994 9.25188C258.522 8.13198 255.978 7.19705 253.383 6.45162C252.853 6.29913 252.536 5.75169 252.679 5.21822L253.27 3.0104C253.413 2.47693 253.097 1.9277 252.561 1.79367C240.088 -1.32656 226.933 -0.359585 215.039 4.56724C203.145 9.49406 193.159 18.1123 186.546 29.138ZM262.67 103.974C263.808 103.335 264.923 102.652 266.013 101.924C271.98 97.9363 277.028 92.7207 280.818 86.6258C281.188 86.0309 281.545 85.4289 281.889 84.8203C281.981 84.6572 282.037 84.4666 281.974 84.29C281.895 84.0673 281.736 83.8714 281.512 83.749L279.731 82.7771C279.247 82.5125 279.069 81.9054 279.323 81.4151C284.313 71.7881 285.784 60.718 283.483 50.1242C283.366 49.5845 283.696 49.0449 284.233 48.9161L286.205 48.4432C286.454 48.3836 286.658 48.236 286.793 48.0416C286.899 47.8875 286.896 47.6891 286.849 47.5076C286.666 46.7893 286.466 46.0744 286.25 45.3634C284.167 38.4952 280.641 32.151 275.909 26.7548C275.051 25.7766 274.157 24.8336 273.229 23.9276C273.095 23.7967 272.925 23.6945 272.738 23.7097C272.503 23.7289 272.273 23.8324 272.097 24.0179L270.702 25.4903C270.322 25.8912 269.69 25.9073 269.281 25.5361C266.521 23.0317 263.481 20.8761 260.228 19.1081C260.026 18.9983 259.789 18.9554 259.574 19.0369C259.087 19.2216 258.665 19.5888 258.415 20.0963C258.025 20.8907 258.169 21.8055 258.695 22.4617C271.908 29.7619 280.857 43.8359 280.857 60C280.857 83.6693 261.669 102.857 238 102.857C237.935 102.857 237.87 102.857 237.805 102.857C237.011 103.202 236.437 103.964 236.405 104.875C236.387 105.378 236.537 105.849 236.804 106.23C236.95 106.439 237.203 106.537 237.458 106.54C245.046 106.628 252.535 104.859 259.273 101.397C259.764 101.144 260.371 101.324 260.634 101.809L261.599 103.593C261.721 103.818 261.917 103.978 262.139 104.057C262.315 104.12 262.506 104.066 262.67 103.974ZM238.978 8.48511C239.25 8.30785 239.433 8.00496 239.438 7.65741L239.454 6.66396C239.46 6.27302 239.241 5.93042 238.917 5.76411C238.827 5.71807 238.725 5.70474 238.624 5.70358C231.33 5.61979 224.046 7.00617 217.22 9.83335C210.396 12.6602 204.265 16.83 199.167 22.0465C199.045 22.1709 198.948 22.3258 198.951 22.4997C198.956 22.7537 199.059 23.0066 199.257 23.1973L199.972 23.8864C200.37 24.2695 201.003 24.2568 201.393 23.8665C201.472 23.7883 201.55 23.7103 201.629 23.6326C201.63 23.6317 201.632 23.6317 201.633 23.6327C201.633 23.6333 201.634 23.6336 201.635 23.6333C201.636 23.6332 201.636 23.633 201.636 23.6327C207.198 18.0714 213.979 13.8433 221.469 11.3007C227.009 9.42009 232.803 8.50739 238.599 8.57493C238.732 8.57647 238.867 8.55753 238.978 8.48511ZM278.857 60C278.857 82.5648 260.565 100.857 238 100.857C215.435 100.857 197.143 82.5648 197.143 60C197.143 37.4353 215.435 19.143 238 19.143C260.565 19.143 278.857 37.4353 278.857 60Z" fill="white"/>
<path fill-rule="evenodd" clip-rule="evenodd" d="M200.205 119.911C199.921 119.982 199.754 120.272 199.83 120.554L200.309 122.343C200.385 122.625 200.674 122.792 200.958 122.722C202.971 122.223 205.028 121.954 207.09 121.914C207.382 121.909 207.619 122.146 207.619 122.438V122.846C207.619 123.138 207.382 123.374 207.09 123.38C202.972 123.463 198.911 124.515 195.246 126.474C195.148 126.526 195.052 126.579 194.955 126.632C194.699 126.772 194.376 126.686 194.23 126.433L192.572 123.561C192.425 123.308 192.102 123.221 191.851 123.371C187.399 126.045 183.698 129.809 181.098 134.312C178.499 138.814 177.09 143.902 177 149.094C176.995 149.386 177.232 149.623 177.524 149.623H178.654C178.946 149.623 179.183 149.86 179.188 150.152C179.274 154.748 180.473 159.293 182.733 163.381C182.874 163.636 182.788 163.959 182.535 164.105L181.556 164.67C181.303 164.816 181.216 165.14 181.367 165.391C185.36 172.039 191.728 176.925 199.183 179.062C199.464 179.142 199.754 178.974 199.83 178.692L200.259 177.09C207.373 178.996 214.942 178.066 221.376 174.51C221.632 174.368 221.955 174.454 222.101 174.707L222.666 175.686C222.812 175.939 223.136 176.026 223.386 175.875C226.68 173.897 229.573 171.316 231.914 168.265C234.255 165.215 235.999 161.752 237.057 158.059C237.138 157.778 236.97 157.488 236.688 157.412L233.484 156.554C233.202 156.478 233.035 156.188 233.105 155.905C234.021 152.188 234.118 148.295 233.363 144.502C232.835 141.846 231.902 139.304 230.611 136.96C230.47 136.704 230.556 136.381 230.809 136.235L231.162 136.031C231.415 135.885 231.739 135.971 231.88 136.227C232.087 136.601 232.285 136.981 232.475 137.366C234.277 141.02 235.25 145.025 235.328 149.094C235.333 149.386 235.569 149.623 235.861 149.623H237.713C238.005 149.623 238.242 149.386 238.237 149.094C238.159 144.579 237.083 140.134 235.084 136.079C233.006 131.866 229.987 128.188 226.261 125.328C222.534 122.469 218.2 120.505 213.593 119.588C209.159 118.706 204.587 118.818 200.205 119.911ZM226.842 130.4C227.048 130.194 227.049 129.859 226.838 129.656C226.095 128.941 225.312 128.267 224.49 127.636C221.738 125.525 218.62 123.953 215.301 122.995C215.021 122.914 214.731 123.082 214.655 123.364L214.549 123.758C214.474 124.04 214.641 124.33 214.922 124.411C218.879 125.557 222.529 127.624 225.562 130.465C225.643 130.541 225.722 130.616 225.802 130.693C226.012 130.895 226.347 130.895 226.553 130.689L226.842 130.4ZM219.761 170.653C219.615 170.401 219.702 170.078 219.951 169.926C222.157 168.586 224.119 166.903 225.767 164.951C225.785 164.929 225.806 164.909 225.826 164.89C225.853 164.864 225.879 164.837 225.903 164.807C226.75 163.781 227.51 162.685 228.173 161.532L228.191 161.501C228.235 161.424 228.278 161.348 228.321 161.271C228.579 160.808 228.389 160.231 227.916 159.991C227.531 159.796 227.079 159.886 226.783 160.176C223.059 166.925 215.873 171.497 207.619 171.497C197.27 171.497 188.6 164.31 186.327 154.656C186.11 154.335 185.72 154.156 185.321 154.237C184.802 154.342 184.465 154.849 184.591 155.363C184.624 155.494 184.657 155.625 184.691 155.756C184.693 155.761 184.689 155.767 184.684 155.769C184.678 155.77 184.675 155.776 184.676 155.782C185.707 159.623 187.69 163.154 190.452 166.042C190.654 166.253 190.654 166.588 190.448 166.794L189.796 167.446C189.589 167.653 189.589 167.988 189.8 168.19C192.902 171.168 196.73 173.348 200.958 174.481C207.381 176.202 214.212 175.368 220.025 172.17C220.281 172.029 220.368 171.705 220.222 171.452L219.761 170.653ZM182.407 142.32C182.834 140.846 183.392 139.404 184.077 138.014C185.275 135.584 186.834 133.371 188.688 131.44C188.891 131.23 188.891 130.895 188.685 130.689L188.396 130.4C188.189 130.194 187.854 130.193 187.652 130.404C186.101 132.014 184.745 133.814 183.618 135.766C182.49 137.719 181.61 139.793 180.991 141.941C180.91 142.221 181.078 142.512 181.36 142.587L181.754 142.693C182.036 142.768 182.326 142.601 182.407 142.32ZM228.435 149.623C228.435 161.12 219.115 170.439 207.619 170.439C196.123 170.439 186.803 161.12 186.803 149.623C186.803 138.127 196.123 128.807 207.619 128.807C219.115 128.807 228.435 138.127 228.435 149.623Z" fill="white"/>
</svg>
