<svg width="700" height="700" viewBox="0 0 700 700" fill="none" xmlns="http://www.w3.org/2000/svg">
<path fill-rule="evenodd" clip-rule="evenodd" d="M144 48C144 49.1046 144.896 50 146 50H150H162.497H162.5L244 50H250L337.5 50C344.404 50 350 44.4036 350 37.5C350 30.5964 344.404 25 337.5 25L260 25C254.477 25 250 20.5229 250 15V10C250 4.47715 254.477 0 260 0L690 2.97075e-06C695.523 2.97075e-06 700 4.47716 700 10V340C700 345.523 695.523 350 690 350H685C679.477 350 675 345.523 675 340V212.5C675 205.596 669.404 200 662.5 200C655.596 200 650 205.596 650 212.5V350V437.5V440C650 445.523 654.477 450 660 450H662.5H690C695.523 450 700 454.477 700 460V690C700 695.523 695.523 700 690 700H510C504.477 700 500 695.523 500 690V685C500 679.477 495.523 675 490 675H260C254.477 675 250 679.477 250 685V690C250 695.523 245.523 700 240 700H9.99998C4.47713 700 0 695.523 0 690V560C0 554.477 4.47715 550 10 550H15C20.5228 550 25 545.523 25 540V360C25 354.477 20.5228 350 15 350H10C4.47715 350 0 345.523 0 340V9.99998C0 4.47713 4.47715 2.97075e-06 10 2.97075e-06H134C139.523 2.97075e-06 144 4.47716 144 10V48ZM25 50V51V237.5C25 244.404 30.5964 250 37.5 250C44.4036 250 50 244.404 50 237.5V63.5C50 56.5964 55.5964 51 62.5 51C69.4036 51 75 45.4036 75 38.5C75 31.5964 69.4036 26 62.5 26H49C35.7452 26 25 36.7452 25 50ZM100 462.5C100 455.596 94.4036 450 87.5 450C80.5964 450 75 455.596 75 462.5V600C75 613.807 86.1929 625 100 625H137.5C144.404 625 150 630.596 150 637.5C150 644.404 155.596 650 162.5 650H487.5C494.404 650 500 644.404 500 637.5C500 630.596 505.596 625 512.5 625H600C613.807 625 625 613.807 625 600V537.5C625 530.596 619.404 525 612.5 525C605.596 525 600 530.596 600 537.5V540V562.5C600 583.211 583.211 600 562.5 600H540H160C126.863 600 100 573.137 100 540V462.5ZM475 37.5C475 30.5964 480.596 25 487.5 25L650 25C663.807 25 675 36.1929 675 50V87.5C675 94.4036 669.404 100 662.5 100C655.596 100 650 94.4036 650 87.5V75C650 61.1929 638.807 50 625 50H487.5C480.596 50 475 44.4036 475 37.5ZM160 120H540C562.091 120 580 137.909 580 160V540C580 562.091 562.091 580 540 580H160C137.909 580 120 562.091 120 540V160C120 137.909 137.909 120 160 120Z" fill="white"/>
</svg>
