<svg width="700" height="700" viewBox="0 0 700 700" fill="none" xmlns="http://www.w3.org/2000/svg">
<path fill-rule="evenodd" clip-rule="evenodd" d="M0 60C0 26.8629 26.8629 0 60 0H640C673.137 0 700 26.8629 700 60V65C700 70.5229 695.523 75 690 75H685C679.477 75 675 70.5229 675 65V50C675 36.1929 663.807 25 650 25L537.5 25C530.596 25 525 30.5964 525 37.5C525 44.4036 530.596 50 537.5 50H590C623.137 50 650 76.8629 650 110V437.5C650 444.404 655.596 450 662.5 450C669.404 450 675 444.404 675 437.5V185C675 179.477 679.477 175 685 175H690C695.523 175 700 179.477 700 185V640C700 673.137 673.137 700 640 700H60C26.8629 700 0 673.137 0 640V586C0 580.477 4.47715 576 10 576H15C20.5228 576 25 571.523 25 566V436C25 430.477 20.5228 426 15 426H10C4.47715 426 0 421.523 0 416V285C0 279.477 4.47715 275 10 275H15C20.5228 275 25 270.523 25 265V185C25 179.477 20.5228 175 15 175H10C4.47715 175 0 170.523 0 165V60ZM350 87.5C350 94.397 344.414 99.9893 337.52 100H160C126.863 100 100 126.863 100 160V540C100 573.137 126.863 600 160 600H512.5C519.404 600 525 605.596 525 612.5C525 619.404 519.404 625 512.5 625H187.5C180.596 625 175 630.596 175 637.5C175 644.404 169.404 650 162.5 650H75C61.1929 650 50 638.807 50 625L50 538.5C50 531.596 55.5965 526 62.5 526C69.4036 526 75 520.404 75 513.5L75 350V100V75C75 61.1929 86.1929 50 100 50L262.5 50C269.404 50 275 55.5965 275 62.5C275 69.4036 280.596 75 287.5 75L337.5 75C344.404 75 350 80.5965 350 87.5ZM662.5 510C669.404 510 675 515.596 675 522.5V650C675 663.807 663.807 675 650 675H337.5C330.596 675 325 669.404 325 662.5C325 655.596 330.596 650 337.5 650H590C623.137 650 650 623.137 650 590V522.5C650 515.596 655.596 510 662.5 510ZM120 160C120 137.909 137.909 120 160 120H540C562.091 120 580 137.909 580 160V540C580 562.091 562.091 580 540 580H160C137.909 580 120 562.091 120 540V160Z" fill="white"/>
</svg>
