<svg width="700" height="700" viewBox="0 0 700 700" fill="none" xmlns="http://www.w3.org/2000/svg">
<path fill-rule="evenodd" clip-rule="evenodd" d="M0 60C0 26.8629 26.8629 0 60 0H550L460 3.93402e-06C454.477 4.17544e-06 450 4.47716 450 10V15C450 20.5229 454.477 25 460 25L540 25C545.523 25 550 20.5228 550 15V0H640C673.137 0 700 26.8629 700 60V640C700 673.137 673.137 700 640 700H610C604.477 700 600 695.523 600 690V685C600 679.477 595.523 675 590 675H510C504.477 675 500 679.477 500 685V690C500 695.523 495.523 700 490 700H260C254.477 700 250 695.523 250 690V662.5V660C250 654.477 245.523 650 240 650H237.5H150H88.5C67.7893 650 51 633.211 51 612.5V587.5C51 580.596 45.4036 575 38.5 575C31.5964 575 26 580.596 26 587.5L26 651C26 664.255 36.7452 675 50 675H51H140C145.523 675 150 679.477 150 685V690C150 695.523 145.523 700 140 700H60C26.8629 700 0 673.137 0 640V150L6.86645e-06 240C7.28781e-06 245.523 4.47716 250 10 250L15 250C20.5229 250 25 254.477 25 260L25 437.5C25 444.404 30.5965 450 37.5 450C44.4036 450 50 444.404 50 437.5V250L50 160C50 154.477 45.5228 150 40 150H0V60ZM362.5 600C355.596 600 350 605.596 350 612.5C350 619.404 355.596 625 362.5 625H487.5C494.404 625 500 630.596 500 637.5C500 644.404 505.596 650 512.5 650H587.5C594.404 650 600 644.404 600 637.5C600 630.596 605.596 625 612.5 625C619.404 625 625 619.404 625 612.5V600V162.5C625 155.596 630.596 150 637.5 150C644.404 150 650 144.404 650 137.5V75C650 61.1929 638.807 50 625 50L587.5 50C580.596 50 575 55.5964 575 62.5C575 69.4036 569.404 75 562.5 75L512.5 75C505.596 75 500 80.5964 500 87.5C500 94.4036 505.596 100 512.5 100H540H550C577.614 100 600 122.386 600 150V160V540C600 573.137 573.137 600 540 600H362.5ZM105.5 50C98.5964 50 93 44.4036 93 37.5C93 30.5964 98.5964 25 105.5 25L337.5 25C344.404 25 350 30.5964 350 37.5C350 44.4036 344.404 50 337.5 50L105.5 50ZM120 160C120 137.909 137.909 120 160 120H540C562.091 120 580 137.909 580 160V540C580 562.091 562.091 580 540 580H160C137.909 580 120 562.091 120 540V160Z" fill="white"/>
</svg>
