<svg width="700" height="700" viewBox="0 0 700 700" fill="none" xmlns="http://www.w3.org/2000/svg">
<path fill-rule="evenodd" clip-rule="evenodd" d="M95 8.09396e-06C97.7614 8.43138e-06 100 2.23858 100 5.00001V20C100 22.7614 102.239 25 105 25L164 25L295 25C297.761 25 300 22.7614 300 20V5C300 2.23858 302.239 0 305 0L640 3.81733e-06C673.137 3.81733e-06 700 26.8629 700 60V195C700 197.761 697.761 200 695 200H680C677.239 200 675 197.761 675 195V112.5C675 105.596 669.404 100 662.5 100C655.596 100 650 105.596 650 112.5V587.5C650 594.404 655.596 600 662.5 600C669.404 600 675 594.404 675 587.5V305C675 302.239 677.239 300 680 300H695C697.761 300 700 302.239 700 305V640C700 673.137 673.137 700 640 700H60C32.3208 700 9.0192 681.257 2.09423 655.771C1.28353 652.787 3.64644 650 6.7383 650H20C22.7614 650 25 647.761 25 645V455C25 452.239 22.7614 450 20 450H5C2.23857 450 0 447.761 0 445V60C0 26.8629 26.8629 3.81733e-06 60 3.81733e-06L95 8.09396e-06ZM600 662.5C600 655.596 594.404 650 587.5 650H162.5C155.596 650 150 655.596 150 662.5C150 669.404 155.596 675 162.5 675H587.5C594.404 675 600 669.404 600 662.5ZM100 56C100 53.2386 102.239 51 105 51L495 51C497.761 51 500 53.2386 500 56V71C500 73.7614 497.761 76 495 76L100 76V56ZM600 337.5V160C600 126.863 573.137 100 540 100H160C126.863 100 100 126.863 100 160L100 288.5C100 295.404 94.4036 301 87.5 301C80.5964 301 75 295.404 75 288.5V101C75 87.1929 86.1929 76 100 76H601C614.255 76 625 86.7452 625 100V101V337.5C625 344.404 619.404 350 612.5 350C605.596 350 600 344.404 600 337.5ZM120 540V160C120 137.909 137.909 120 160 120H540C562.091 120 580 137.909 580 160V540C580 562.091 562.091 580 540 580H160C137.909 580 120 562.091 120 540Z" fill="white"/>
</svg>
