<svg width="700" height="700" viewBox="0 0 700 700" fill="none" xmlns="http://www.w3.org/2000/svg">
<path fill-rule="evenodd" clip-rule="evenodd" d="M52.0149 166.411C49.118 171.113 50.7684 177.238 55.5514 180L67.0262 186.625C67.5186 186.909 68.0249 187.147 68.5403 187.339C68.5809 187.354 68.5984 187.402 68.5767 187.44C68.5574 187.473 68.5689 187.515 68.6022 187.535L81.5322 195C86.3151 197.761 87.9381 203.87 85.3377 208.742C68.4458 240.391 57.291 274.958 52.5667 310.842C47.7711 347.268 49.7274 384.098 58.1678 419.526C59.2398 424.026 56.6003 428.616 52.1324 429.813C47.6645 431.01 43.0606 428.361 41.982 423.863C31.0213 378.155 30.3386 330.43 40.163 284.184C42.0709 275.203 36.8534 266.093 27.9845 263.716C19.1156 261.34 9.95829 266.598 8.00557 275.569C-7.14339 345.17 -0.717519 417.887 26.6422 483.939C54.0018 549.991 100.876 605.953 160.804 644.457C168.529 649.42 178.722 646.663 183.312 638.711C187.903 630.76 185.151 620.628 177.451 615.626C137.803 589.872 104.539 555.643 79.9692 515.572C77.5514 511.629 78.9334 506.5 82.9392 504.188C86.945 501.875 92.0571 503.254 94.4807 507.194C117.034 543.854 147.296 575.364 183.329 599.441C207.93 615.879 234.703 628.505 262.74 637.029C268.024 638.635 271.196 644.102 269.766 649.437L265.902 663.858C265.892 663.896 265.914 663.934 265.951 663.944C265.993 663.955 266.015 664.001 265.997 664.041C265.768 664.541 265.578 665.067 265.431 665.616L262.002 678.415C260.572 683.749 263.736 689.248 269.11 690.524C352.69 710.381 440.676 698.797 516.268 657.985C521.128 655.361 522.761 649.231 520 644.449L513.375 632.974C512.916 632.179 513.097 631.114 513.889 630.652C519.542 627.35 525.102 623.875 530.56 620.227C547.863 608.666 563.966 595.503 578.671 580.943C579.323 580.297 580.398 580.398 581.047 581.047L590.416 590.416C594.322 594.321 600.664 594.331 604.457 590.316C638.974 553.768 665.241 510.181 681.426 462.504C698.682 411.667 704.013 357.542 697.006 304.316C689.998 251.089 670.841 200.188 641.014 155.55C613.042 113.686 576.388 78.3831 533.588 52.014C528.886 49.1171 522.761 50.7683 520 55.5512L513.375 67.0261C512.916 67.8205 511.904 68.1967 511.107 67.7419C502.351 62.7439 493.349 58.1465 484.13 53.9691C468.422 46.8518 452.214 41.0153 435.667 36.4936C434.782 36.2517 434.332 35.2698 434.569 34.3837L437.999 21.5851C439.428 16.2505 436.264 10.7521 430.89 9.47559C359.342 -7.52158 284.159 -1.56528 216.061 26.642C147.962 54.8493 90.5887 103.8 52.0149 166.411ZM495.244 605.761C501.422 602.252 507.481 598.516 513.407 594.556C548.219 571.296 577.663 540.872 599.772 505.318C601.563 502.437 603.303 499.528 604.991 496.592C605.268 496.11 605.343 495.545 605.333 494.99C605.268 491.587 603.391 488.301 600.164 486.54L597.092 484.863C592.244 482.217 590.478 476.149 592.943 471.207C619.906 417.169 628.078 355.663 616.172 296.471C615.082 291.056 618.373 285.66 623.744 284.373L627.147 283.557C630.983 282.637 633.777 279.617 634.524 276.027C634.564 275.834 634.569 275.634 634.519 275.444C633.569 271.82 632.55 268.211 631.46 264.62C619.307 224.555 598.74 187.547 571.135 156.07C566.497 150.781 561.678 145.669 556.689 140.741C556.594 140.647 556.477 140.58 556.351 140.537C552.842 139.335 548.775 140.235 546.034 143.128L543.627 145.669C539.828 149.678 533.51 149.833 529.364 146.184C514.475 133.081 498.238 121.687 480.963 112.174C478.95 111.066 476.536 110.589 474.501 111.656C472.237 112.842 470.309 114.748 469.091 117.229C466.814 121.863 467.654 127.199 470.722 131.027C547.8 173.611 600 255.71 600 350C600 488.071 488.071 600 350 600C349.621 600 349.243 599.999 348.864 599.998C344.228 602.012 340.885 606.455 340.696 611.772C340.613 614.112 341.151 616.334 342.162 618.265C343.347 620.526 345.941 621.482 348.493 621.496C390.801 621.731 432.533 612.074 470.374 593.357C475.324 590.908 481.385 592.696 484.014 597.553L485.681 600.631C487.604 604.183 491.372 606.111 495.123 605.798C495.165 605.794 495.207 605.782 495.244 605.761ZM353.905 49.3206C356.563 47.8206 358.384 45.0201 358.436 41.7706C358.495 38.0789 356.254 34.8784 353.036 33.6061C352.318 33.3225 351.54 33.2526 350.769 33.2507C309.179 33.1502 267.704 41.2403 228.785 57.361C189.85 73.4883 154.789 97.108 125.445 126.604C124.458 127.596 123.616 128.782 123.467 130.173C123.193 132.73 124.078 135.395 126.085 137.327C129.319 140.442 134.326 140.557 137.781 137.835C137.798 137.821 137.823 137.822 137.838 137.838C137.855 137.854 137.881 137.854 137.898 137.838C170.338 105.407 209.885 80.7495 253.568 65.9209C284.987 55.2556 317.803 49.9269 350.675 50.0006C351.793 50.0032 352.931 49.8703 353.905 49.3206ZM580 350C580 477.026 477.026 580 350 580C222.975 580 120 477.026 120 350C120 222.975 222.975 120 350 120C477.026 120 580 222.975 580 350Z" fill="white"/>
</svg>
