<svg width="700" height="700" viewBox="0 0 700 700" fill="none" xmlns="http://www.w3.org/2000/svg">
<path fill-rule="evenodd" clip-rule="evenodd" d="M51.4981 167.253C52.8169 165.098 54.1588 162.959 55.5235 160.834L77.0978 130.855C99.3683 103.122 125.803 78.8623 155.55 58.9857C200.188 29.1595 251.089 10.0017 304.316 2.99435C357.542 -4.01304 411.667 1.3178 462.504 18.5745C508.086 34.0475 549.929 58.7366 585.457 91.0402C592.25 97.2171 592.224 107.776 585.732 114.268C579.239 120.761 568.741 120.725 561.917 114.582C545.016 99.3675 526.556 86.0459 506.873 74.8248C503.533 74.6267 500.207 76.3509 498.471 79.4983C496.578 82.9292 497.131 87.041 499.508 89.9087C513.255 97.8111 526.397 106.815 538.796 116.856C575.589 146.65 604.808 184.729 624.064 227.979C643.32 271.229 652.067 318.423 649.589 365.701C648.431 387.803 644.835 409.63 638.915 430.799C639.76 433.748 642.017 436.215 645.155 437.145C649.471 438.424 653.995 436.364 655.835 432.438C657.669 425.632 659.281 418.747 660.664 411.795C674.572 341.874 664.459 269.474 632.246 206.236C628.078 198.054 630.76 187.903 638.711 183.313C646.663 178.722 656.869 181.43 661.077 189.59C697.301 259.833 708.757 340.447 693.275 418.282C676.709 501.563 630.432 575.982 563.066 627.674C495.701 679.365 411.84 704.804 327.109 699.251C247.92 694.06 173.018 662.13 114.544 608.96C114.521 608.94 114.498 608.919 114.475 608.898C112.865 607.433 111.267 605.952 109.684 604.457C105.669 600.664 105.678 594.322 109.584 590.416L114.245 585.755L114.268 585.732L114.291 585.709L120.19 579.81C110.186 569.806 100.819 559.132 92.1602 547.848C66.1366 513.933 47.1023 475.275 36.0741 434.116L21.5852 437.999C16.2506 439.428 10.7524 436.264 9.47593 430.891C-3.15864 377.705 -3.15864 322.295 9.47592 269.109C10.7524 263.736 16.2506 260.572 21.5852 262.002L36.0741 265.884C43.3694 238.658 54.1507 212.587 68.0851 188.294L55.0736 180.83C50.2829 178.082 48.6145 171.963 51.4981 167.253ZM612.464 495.303C611.593 496.876 610.708 498.442 609.808 500C586.136 541 553.097 575.816 513.392 601.601C473.687 627.386 428.443 643.408 381.359 648.357C370.643 649.483 359.902 650.028 349.18 649.999C345.712 651.165 343.167 654.364 343.087 658.202C343.002 662.306 345.763 665.817 349.561 666.75C419.247 666.849 487.24 643.946 542.825 601.295C577.114 574.984 605.366 542.167 626.192 505.076C627.821 501.072 626.13 496.405 622.201 494.319C618.972 492.604 615.158 493.124 612.464 495.303ZM246.475 625.304C246.545 625.294 246.616 625.286 246.686 625.28C250.377 624.947 253.721 622.472 255.048 618.718L256.214 615.418C258.054 610.21 263.763 607.499 269.034 609.146C304.303 620.165 341.512 623.888 378.38 620.013C420.991 615.534 461.936 601.034 497.87 577.699C499.039 576.94 500.203 576.171 501.359 575.395C505.286 571.232 505.723 564.674 502.194 559.812C500.068 556.884 496.922 555.148 493.571 554.69C452.943 583.24 403.429 600 350 600C211.929 600 100 488.071 100 350C100 213.898 208.76 103.197 344.11 100.068C347.424 97.7237 349.602 93.9244 349.604 89.6034C349.605 84.8106 346.93 80.6272 342.994 78.5905C327.409 78.9928 311.858 80.7375 296.517 83.82C291.103 84.9079 285.708 81.6161 284.422 76.2452L283.606 72.8414C282.683 68.9871 279.64 66.185 276.027 65.4524C275.943 65.4354 275.859 65.416 275.776 65.3945C262.754 68.7905 249.945 73.0855 237.443 78.264C196.718 95.1332 160.317 120.935 130.922 153.749C131.057 154.312 131.099 154.907 131.067 155.492C130.909 158.426 132.084 161.415 134.493 163.501L137.14 165.791C141.316 169.405 141.756 175.71 138.298 180.016C105.744 220.559 85.4451 269.696 79.9876 321.621C74.6372 372.527 83.7969 423.778 106.221 469.516C108.653 474.475 106.843 480.53 101.977 483.142L98.8933 484.798C95.313 486.72 93.3702 490.516 93.6991 494.289C100.501 506.371 108.167 517.99 116.655 529.052C144.119 564.844 179.449 593.839 219.912 613.793C228.591 618.073 237.457 621.913 246.475 625.304ZM580 350C580 477.025 477.025 580 350 580C222.975 580 120 477.025 120 350C120 222.975 222.975 120 350 120C477.025 120 580 222.975 580 350Z" fill="white"/>
</svg>
