<svg width="700" height="700" viewBox="0 0 700 700" fill="none" xmlns="http://www.w3.org/2000/svg">
<path fill-rule="evenodd" clip-rule="evenodd" d="M269.11 9.4758C340.658 -7.52133 415.841 -1.56502 483.939 26.6423C552.038 54.8496 609.411 103.8 647.985 166.411C650.882 171.113 649.232 177.239 644.449 180L632.974 186.625C628.191 189.386 622.089 187.738 619.178 183.045C607.771 164.653 594.567 147.573 579.819 132.024C576.636 128.668 571.325 128.675 568.054 131.946C564.784 135.217 564.793 140.511 567.971 143.872C590.703 167.91 609.44 195.688 623.259 226.188C649.129 283.284 656.464 347.049 644.236 408.527C638.349 438.12 628.072 466.467 613.893 492.69C611.693 496.758 613.055 501.875 617.061 504.188C621.066 506.5 626.199 505.133 628.405 501.068C636.928 485.36 644.144 468.891 649.94 451.816C669.005 395.654 671.897 335.334 658.393 277.719C657.132 272.342 660.282 266.86 665.616 265.431L678.415 262.002C683.749 260.572 689.248 263.736 690.524 269.11C705.721 333.081 702.604 400.114 681.426 462.504C659.174 528.054 617.985 585.533 563.066 627.674C508.148 669.814 441.966 694.723 372.891 699.251C303.816 703.778 234.949 687.721 175 653.109C151.399 639.483 129.48 623.153 109.684 604.457C105.669 600.665 105.678 594.322 109.584 590.416L113.119 586.881C117.024 582.976 117.012 576.655 113.229 572.631C103.39 562.167 94.2318 551.037 85.8248 539.305C64.9631 510.193 49.0992 477.892 38.8105 443.734C37.2176 438.446 31.7495 435.275 26.4148 436.705L21.5852 437.999C16.2506 439.428 10.7524 436.265 9.47593 430.891C-3.92842 374.465 -3.11174 315.535 11.926 259.413C26.9636 203.292 55.7213 151.849 95.543 109.684C99.3351 105.669 105.678 105.679 109.584 109.584L113.119 113.119C117.024 117.025 123.346 117.012 127.369 113.229C148.16 93.6795 171.492 76.9008 196.796 63.3757C215.812 53.2117 235.736 44.9943 256.266 38.8106C261.554 37.2177 264.725 31.7496 263.296 26.415L262.002 21.5853C260.572 16.2507 263.736 10.7523 269.11 9.4758ZM555.542 568.523L555.378 568.678L555.078 568.959C509.328 611.809 451.305 639.252 389.158 647.434C327.011 655.615 263.862 644.125 208.581 614.576C208.157 614.35 207.733 614.122 207.31 613.893C203.242 611.694 198.125 613.055 195.812 617.061C193.5 621.066 194.868 626.199 198.933 628.405C251.44 656.897 310.992 669.986 370.716 666.072C433.229 661.975 493.124 639.432 542.825 601.295C551.605 594.558 559.998 587.387 567.977 579.82C571.333 576.636 571.325 571.325 568.054 568.054C564.783 564.784 559.489 564.793 556.128 567.971C555.933 568.155 555.738 568.339 555.542 568.523ZM150.95 150.949C154.855 154.855 154.84 161.174 151.081 165.221C131.41 186.397 115.339 210.478 103.364 236.496C102.73 237.235 102.189 238.078 101.767 239.018C95.0695 253.939 89.7359 269.435 85.8323 285.318C84.3879 291.195 88.2402 296.986 94.1705 298.192C99.8748 299.352 105.422 295.845 107.141 290.351C107.144 290.364 107.147 290.377 107.151 290.39C133.885 181.1 232.472 100 350 100C488.071 100 600 211.929 600 350C600 356.083 599.783 362.116 599.356 368.09C599.942 373.188 603.893 377.425 609.15 377.994C615.102 378.638 620.472 374.336 620.877 368.363C621.517 358.948 621.663 349.512 621.319 340.092L621.317 340.034L621.316 340.002C620.024 304.946 611.942 270.267 597.3 237.95C575.265 189.319 539.415 148.334 494.317 120.033C489.639 117.097 487.989 110.997 490.75 106.214L492.062 103.941C494.824 99.1577 493.193 93.0258 488.319 90.4286C477.126 84.4642 465.533 79.2158 453.606 74.7268C414.422 59.9791 372.541 53.7666 330.763 56.5049C288.986 59.2431 248.274 70.8689 211.35 90.605C188.732 102.695 167.853 117.658 149.212 135.073C145.177 138.843 145.188 145.188 149.093 149.093L150.95 150.949ZM580 350C580 477.025 477.025 580 350 580C222.975 580 120 477.025 120 350C120 222.975 222.975 120 350 120C477.025 120 580 222.975 580 350Z" fill="white"/>
</svg>
