<svg width="700" height="700" viewBox="0 0 700 700" fill="none" xmlns="http://www.w3.org/2000/svg">
<path fill-rule="evenodd" clip-rule="evenodd" d="M269.108 9.47607C263.735 10.7525 260.572 16.2506 262.001 21.5852L265.431 34.3837C266.86 39.7184 272.34 42.868 277.718 41.6077C298.736 36.6813 320.15 33.9287 341.626 33.3607C346.25 33.2384 350 36.9995 350 41.6249C350 46.2501 346.249 49.9875 341.626 50.1166C295.355 51.4089 249.783 63.4006 208.581 85.4236C203.799 87.9796 197.802 86.3858 195.091 81.6901L191.625 75.6864L187.5 68.5417L180 55.5514C177.238 50.7684 171.114 49.1175 166.412 52.0144C117.034 82.4357 75.9416 124.683 46.891 175C17.8404 225.317 1.79936 282.028 0.142704 340.001C-0.0150543 345.521 4.47702 350 9.99987 350H14.9993C20.5221 350 24.9831 354.478 25.1532 359.998C26.6898 409.879 39.706 459.134 63.6752 503.764C66.2883 508.629 64.6643 514.739 59.8813 517.5L55.5513 520C50.7683 522.761 49.1179 528.887 52.0147 533.589C97.0738 606.73 167.48 660.754 249.791 685.348C255.082 686.929 260.572 683.749 262.001 678.415L263.296 673.585C264.725 668.25 270.207 665.101 275.583 666.366C352.753 684.521 433.92 673.835 503.762 636.325C508.628 633.712 514.738 635.336 517.5 640.119L520 644.449C522.761 649.232 528.886 650.883 533.588 647.986C569.832 625.656 601.724 596.885 627.674 563.067C653.623 529.248 673.16 490.997 685.348 450.208C686.929 444.916 683.749 439.428 678.415 437.998L663.926 434.116L655.957 431.981L649.437 430.234C644.102 428.805 640.954 423.324 642.205 417.945C651.812 376.628 652.598 333.516 644.235 291.473C638.349 261.881 628.072 233.533 613.893 207.31C611.693 203.242 613.055 198.125 617.06 195.812C621.066 193.5 626.199 194.867 628.405 198.932C630.367 202.549 632.261 206.207 634.084 209.905C654.098 250.488 665.166 294.852 666.592 340.001C666.766 345.521 671.227 350 676.75 350H690C695.523 350 700.015 345.522 699.857 340.001C698.421 289.75 686.174 240.356 663.905 195.199C640.161 147.05 605.658 105.008 563.066 72.3264C520.475 39.6446 470.936 17.1987 418.282 6.72517C368.899 -3.09757 318.019 -2.14275 269.108 9.47607ZM568.054 131.946C571.325 128.675 571.332 123.364 567.976 120.181C559.991 112.607 551.597 105.437 542.825 98.7054C511.994 75.0482 477.142 57.3175 440.041 46.3172C435.606 45.0024 431.01 47.6647 429.813 52.1325C428.616 56.6002 431.272 61.1809 435.704 62.5023C480.064 75.7262 520.979 99.1043 555.078 131.041C555.429 131.37 555.779 131.699 556.128 132.029C559.489 135.207 564.783 135.217 568.054 131.946ZM490.75 593.786C487.988 589.003 489.638 582.903 494.316 579.967C518.073 565.06 539.263 546.632 557.219 525.421C557.515 525.071 557.839 524.747 558.162 524.423C558.214 524.37 558.267 524.318 558.319 524.266C558.546 524.037 558.764 523.797 558.974 523.543C568.643 511.831 577.31 499.329 584.884 486.169C584.964 486.03 585.045 485.89 585.126 485.751L585.126 485.75C585.126 485.75 585.126 485.75 585.125 485.75C585.125 485.749 585.125 485.749 585.125 485.749C585.625 484.876 586.12 484.001 586.611 483.122C589.561 477.839 587.382 471.233 581.983 468.499C577.585 466.271 572.408 467.301 569.035 470.61C526.468 547.75 444.336 600 350 600C231.723 600 132.63 517.863 106.649 407.518C104.164 403.856 99.71 401.805 95.1547 402.73C89.224 403.934 85.3699 409.724 86.8125 415.601C87.1805 417.101 87.5613 418.597 87.9548 420.089C87.9719 420.154 87.9333 420.221 87.8685 420.238C87.8035 420.255 87.7649 420.322 87.7823 420.387C99.2264 463.022 120.923 502.315 151.081 534.779C154.839 538.826 154.855 545.145 150.949 549.051L149.093 550.907C145.187 554.812 145.176 561.158 149.212 564.928C184.15 597.565 226.849 621.503 273.875 634.103C345.998 653.428 422.641 644.572 488.317 609.573C493.191 606.975 494.824 600.842 492.062 596.059L490.75 593.786ZM62.502 264.296C67.2938 248.222 73.4478 232.502 80.938 217.313C94.2828 190.253 111.546 165.532 132.029 143.872C135.207 140.511 135.216 135.217 131.946 131.946C128.675 128.675 123.364 128.668 120.181 132.024C103.132 149.999 88.1788 169.987 75.6863 191.625C63.1938 213.263 53.3595 236.207 46.3171 259.959C45.0023 264.394 47.6646 268.99 52.1323 270.187C56.6001 271.384 61.1807 268.729 62.502 264.296ZM580 350C580 477.025 477.025 580 350 580C222.975 580 120 477.025 120 350C120 222.975 222.975 120 350 120C477.025 120 580 222.975 580 350Z" fill="white"/>
</svg>
