<svg width="2178" height="700" viewBox="0 0 2178 700" fill="none" xmlns="http://www.w3.org/2000/svg">
<path fill-rule="evenodd" clip-rule="evenodd" d="M2065.31 434.159C2077.31 444.778 2095.66 443.61 2106.22 431.555L2143.07 389.489C2162.89 366.857 2162.89 333.044 2143.06 310.415L1889.01 20.46C1877.62 7.45695 1861.17 -5.68639e-05 1843.89 -5.76067e-05L343.434 -0.00012207C326.486 -0.000122798 310.329 7.16735 298.954 19.7313L257.107 65.9551C246.502 77.6682 247.41 95.7621 259.134 106.355C270.849 116.941 271.765 135.019 261.179 146.734L132.006 289.693C121.365 301.469 103.193 302.39 91.4167 291.749C79.6486 281.116 61.4909 282.027 50.8463 293.785L33.3293 313.134C14.4092 334.032 14.4069 365.868 33.324 386.77L298.954 680.262C310.328 692.83 326.488 700 343.439 700L761 700C768.179 700 774 694.18 774 687C774 679.82 779.82 674 787 674H1039.91C1047.09 674 1052.91 679.82 1052.91 687C1052.91 694.18 1058.73 700 1065.91 700L1343.68 700H1846.73C1862.21 700 1876.94 693.322 1887.14 681.679L1902.89 663.692C1913.65 651.405 1912.46 632.73 1900.23 621.906C1887.95 611.044 1886.81 592.287 1897.67 580.01L2024.5 436.656C2035.08 424.696 2053.35 423.578 2065.31 434.159ZM893.375 600H1040.77C1047.4 600 1052.77 605.372 1052.77 612C1052.77 618.627 1047.4 624 1040.77 624H485.218C485.137 624 485.059 624.03 484.999 624.084C484.866 624.204 484.66 624.194 484.54 624.061L373.512 501.184C371.771 499.257 364.854 501.457 362.927 503.198L334.027 529.311C329.929 533.014 323.606 532.694 319.903 528.596L165.705 357.941C164.582 356.699 163.643 355.267 162.96 353.737C161.394 350.231 161.931 345.981 164.671 342.948L318.869 172.294C322.572 168.196 328.895 167.876 332.993 171.578L361.893 197.692C363.92 199.523 370.467 201.63 372.299 199.602L484.854 75.0347C484.872 75.0154 484.902 75.0139 484.921 75.0313L484.947 75.0549C484.967 75.0733 485 75.0589 485 75.0315C485 75.0141 485.014 75 485.031 75H1040.27C1047.17 75 1052.77 80.5964 1052.77 87.4999C1052.77 94.4035 1047.17 99.9999 1040.27 99.9999L566.915 99.9999C549.967 99.9999 533.81 107.167 522.435 119.731L350.451 309.701C329.759 332.556 329.757 367.374 350.445 390.232L522.435 580.262C533.809 592.83 549.969 600 566.92 600H893.375ZM539.292 101C539.281 101 539.269 101.005 539.261 101.013L527.642 113.339C527.56 113.426 527.566 113.564 527.655 113.644C527.742 113.723 527.877 113.716 527.956 113.629L539.324 101.072C539.349 101.044 539.33 101 539.292 101ZM538.449 598C538.463 598 538.47 597.984 538.461 597.973L430.474 478.66L523.779 581.922C523.78 581.923 523.781 581.923 523.782 581.922C523.783 581.922 523.785 581.922 523.785 581.923L538.437 597.995C538.44 597.998 538.444 598 538.449 598ZM1336.77 13C1336.77 5.82026 1330.95 -4.30355e-05 1323.77 -4.30355e-05H782C774.82 -4.30355e-05 769 5.82026 769 13C769 20.1797 774.82 26 782 26H1323.77C1330.95 26 1336.77 20.1797 1336.77 13ZM1536 39C1536 31.8203 1541.82 26 1549 26H1814.89C1814.9 26 1814.91 26.0107 1814.91 26.024C1814.91 26.0298 1814.91 26.0355 1814.92 26.0399L1960.86 190.995C1971.56 203.092 1970.43 221.576 1958.33 232.279C1946.23 242.982 1927.75 241.852 1917.05 229.754L1771.15 64.8448C1771.11 64.8016 1771.11 64.7354 1771.16 64.6972C1771.2 64.6586 1771.2 64.5918 1771.16 64.5486L1763.3 55.8522C1761.08 53.3994 1757.93 52 1754.62 52H1549C1541.82 52 1536 46.1797 1536 39ZM1674.91 662C1674.91 654.82 1669.09 649 1661.91 649H1409C1401.82 649 1396 654.82 1396 662C1396 669.18 1401.82 675 1409 675H1661.91C1669.09 675 1674.91 669.18 1674.91 662ZM1659.35 140.46C1647.96 127.457 1631.51 120 1614.22 120L575.787 120C558.839 120 542.682 127.167 531.307 139.731L377.428 309.703C356.736 332.558 356.734 367.375 377.422 390.234L531.308 560.262C542.683 572.83 558.843 580 575.794 580H893.375H1273.77L1614.21 580C1631.51 580 1647.96 572.54 1659.35 559.533L1808.28 389.505C1828.1 366.873 1828.1 333.06 1808.27 310.432L1659.35 140.46Z" fill="white"/>
</svg>
