<svg width="2178" height="700" viewBox="0 0 2178 700" fill="none" xmlns="http://www.w3.org/2000/svg">
<path fill-rule="evenodd" clip-rule="evenodd" d="M595.5 25C602.403 25 608 19.4035 608 12.5C608 5.59638 602.403 -8.02105e-05 595.5 -8.04846e-05L343.434 -9.04956e-05C326.486 -9.11687e-05 310.329 7.16742 298.954 19.7313L36.45 309.687C15.7584 332.542 15.7559 367.359 36.4442 390.217L88.2071 447.41C98.9636 459.295 117.315 460.217 129.209 449.47C141.11 438.717 159.474 439.647 170.227 451.548L298.978 594.04C309.685 605.889 308.758 624.173 296.91 634.879C285.054 645.591 284.135 663.889 294.857 675.736L304.108 685.957C312.201 694.898 323.698 700 335.758 700L527.001 700C534.18 700 540.001 694.18 540.001 687C540.001 679.82 545.821 674 553.001 674H805.911C813.09 674 818.911 679.82 818.911 687C818.911 694.18 824.731 700 831.911 700H1126C1133.18 700 1139 694.18 1139 687C1139 679.82 1144.82 674 1152 674H1693.77C1700.95 674 1706.77 679.82 1706.77 687C1706.77 694.18 1712.59 700 1719.77 700L1843.88 700C1861.17 700 1877.62 692.54 1889.01 679.533L2143.07 389.489C2162.89 366.857 2162.89 333.044 2143.06 310.415L2100.64 262.003C2089.95 249.797 2071.39 248.568 2059.18 259.257C2046.96 269.949 2028.4 268.716 2017.7 256.503L1891.71 112.58C1881.04 100.393 1882.27 81.8644 1894.46 71.1953C1906.65 60.5231 1907.88 41.9877 1897.2 29.8013L1885.26 16.1758C1876.25 5.89552 1863.25 -2.51195e-05 1849.58 -2.57169e-05L903.5 -6.70715e-05C896.596 -6.73732e-05 891 5.59638 891 12.5C891 19.4035 896.596 25 903.5 25H1094.77C1101.95 25 1107.77 30.8203 1107.77 38C1107.77 45.1797 1101.95 51 1094.77 51H553.001C545.821 51 540.001 45.1797 540.001 38C540.001 30.8203 545.821 25 553.001 25H595.5ZM485.001 623.862C485.001 623.741 484.857 623.678 484.769 623.761L484.504 624.008C484.384 624.12 484.197 624.113 484.085 623.994L248.071 370.739C237.472 359.366 237.552 341.71 248.254 330.433C259.923 318.137 279.544 318.223 291.105 330.621L473.77 526.497L350.441 390.232C329.753 367.374 329.755 332.556 350.447 309.701L540.294 100C540.295 100 540.295 99.9999 540.295 99.9999C540.297 99.9999 540.297 100.001 540.297 100.002L350.451 309.701C329.759 332.556 329.757 367.374 350.445 390.232L522.435 580.262C533.809 592.83 549.969 600 566.92 600H893.375H1273.77L1623.28 600C1640.57 600 1657.03 592.54 1668.42 579.533L1835.61 388.658C1846.66 376.044 1866.07 375.413 1877.92 387.282C1888.67 398.053 1889.25 415.303 1879.26 426.78L1707.54 624.011C1707.47 624.084 1707.36 624.091 1707.29 624.028L1707.12 623.877C1707.07 623.837 1707 623.87 1707 623.93C1707 623.969 1706.97 624 1706.93 624H1502C1494.82 624 1489 629.82 1489 637C1489 644.18 1483.18 650 1476 650H902.001C894.822 650 889.001 644.18 889.001 637C889.001 629.82 883.181 624 876.001 624H485.139C485.063 624 485.001 623.938 485.001 623.862ZM1384 39C1384 31.8203 1389.82 26 1397 26H1649.91C1657.09 26 1662.91 31.8203 1662.91 39C1662.91 46.1797 1657.09 52 1649.91 52H1397C1389.82 52 1384 46.1797 1384 39ZM1800.87 144.761C1812.95 133.847 1831.59 134.791 1842.5 146.87L1970.59 288.624C1981.5 300.703 1980.56 319.341 1968.48 330.255C1956.4 341.168 1937.76 340.224 1926.85 328.146L1798.76 186.391C1787.85 174.313 1788.79 155.674 1800.87 144.761ZM1958.56 460.376C1946.29 449.675 1927.67 450.944 1916.97 463.211L1791.38 607.179C1780.68 619.446 1781.95 638.066 1794.21 648.767C1806.48 659.468 1825.1 658.199 1835.8 645.932L1961.39 501.963C1972.09 489.696 1970.82 471.077 1958.56 460.376ZM158.884 298.72C146.955 287.644 146.264 268.994 157.341 257.065L287.341 117.064C298.417 105.135 317.067 104.445 328.996 115.521C340.925 126.598 341.616 145.248 330.539 157.177L200.539 297.177C189.462 309.106 170.813 309.797 158.884 298.72ZM531.307 139.731C542.682 127.167 558.839 120 575.787 120L1614.22 120C1631.51 120 1647.96 127.457 1659.35 140.46L1808.27 310.432C1828.1 333.06 1828.1 366.873 1808.28 389.505L1659.35 559.533C1647.96 572.54 1631.51 580 1614.21 580L1273.77 580H893.375H575.794C558.843 580 542.683 572.83 531.309 560.262L377.422 390.234C356.734 367.375 356.736 332.558 377.428 309.703L531.307 139.731Z" fill="white"/>
</svg>
