<svg width="2138" height="700" viewBox="0 0 2138 700" fill="none" xmlns="http://www.w3.org/2000/svg">
<path fill-rule="evenodd" clip-rule="evenodd" d="M521.05 12.5C521.05 19.4036 526.646 25 533.55 25H787.455C794.359 25 799.955 19.4036 799.955 12.5C799.955 5.59645 805.552 2.10482e-05 812.455 2.13449e-05L1823.89 6.48153e-05C1841.18 6.5549e-05 1857.62 7.4571 1869.02 20.4602L1910.34 67.6194C1920.75 79.5026 1919.69 97.5437 1907.96 108.128C1896.11 118.822 1895.17 137.099 1905.86 148.951L1999 252.17C2009.01 263.271 2026.13 264.15 2037.23 254.134C2048.45 244.014 2065.78 245.031 2075.73 256.393L2123.06 310.415C2142.89 333.044 2142.89 366.857 2123.07 389.489L1869.02 679.534C1857.63 692.54 1841.17 700 1823.88 700L1404.63 700C1397.45 700 1391.63 694.18 1391.63 687C1391.63 680.488 1386.85 675.095 1380.6 674.148C1380.49 674.132 1380.39 674.113 1380.29 674.094C1380.03 674.047 1379.76 674 1379.5 674H1378.63H1125.73H1125.5C1125.45 674 1125.4 674.002 1125.35 674.005C1118.35 674.204 1112.73 679.946 1112.73 687C1112.73 694.18 1106.91 700 1099.73 700H791.128H698.905C691.449 700 685.405 693.956 685.405 686.5C685.405 679.044 679.361 673 671.905 673H419.999C412.543 673 406.499 679.044 406.499 686.5C406.499 693.956 400.455 700 392.999 700H323.443C306.492 700 290.332 692.83 278.957 680.262L16.4482 390.217C-4.24015 367.359 -4.23764 332.542 16.4539 309.687L69.5409 251.048C79.4641 240.087 96.3891 239.233 107.366 249.138C118.355 259.055 135.303 258.186 145.22 247.196L276.959 101.211C286.786 90.3212 285.924 73.5273 275.035 63.7005C264.133 53.8625 263.284 37.0448 273.139 26.1587L284.072 14.0825C292.19 5.1155 303.722 0 315.818 0L508.55 8.28341e-06C515.453 8.58012e-06 521.05 5.59645 521.05 12.5ZM406.499 638C406.499 630.82 412.32 625 419.499 625H672.405C679.584 625 685.405 630.82 685.405 638C685.405 645.18 679.584 651 672.405 651H419.499C412.32 651 406.499 645.18 406.499 638ZM1112.73 613C1112.73 605.82 1118.55 600 1125.73 600H1599.78C1617.07 600 1633.52 592.54 1644.92 579.534L1811.37 389.503C1831.19 366.872 1831.19 333.058 1811.36 310.43L1644.92 120.46C1637.19 111.636 1627.13 105.366 1616.06 102.247C1612.53 101.255 1608.86 101 1605.2 101H1418.5C1411.32 101 1405.5 95.1797 1405.5 88C1405.5 80.8203 1411.32 75 1418.5 75H1680.5C1681.37 75 1682.22 75.0853 1683.04 75.2479C1685.62 75.4075 1688.13 76.5602 1689.97 78.6629L1723.1 116.724C1726.77 120.942 1733.19 121.329 1737.34 117.582L1763.54 93.9461C1767.64 90.2463 1773.96 90.571 1777.66 94.6714L1894.9 224.601C1898.59 228.702 1898.27 235.025 1894.17 238.725L1865.13 264.924C1861.09 268.577 1860.71 274.801 1864.29 278.914L1920 342.908L1920.56 343.401C1924.7 347.056 1925.09 353.376 1921.43 357.516L1865.6 420.744C1861.94 424.884 1862.33 431.204 1866.47 434.859L1894.27 459.401C1898.41 463.057 1898.8 469.377 1895.14 473.516L1779.31 604.694C1775.65 608.834 1769.33 609.227 1765.19 605.571L1737.4 581.027C1733.26 577.372 1726.94 577.764 1723.28 581.904L1687.31 622.638C1685.19 625.041 1682.17 626.182 1679.2 626H1667.5H1659.5H1125.73C1118.55 626 1112.73 620.18 1112.73 613ZM1620.58 101C1620.7 101 1620.82 101.037 1620.92 101.106L1621.18 101.288C1621.76 101.695 1621.22 102.738 1620.54 102.534C1620.5 102.52 1620.45 102.507 1620.4 102.493C1619.72 102.29 1619.87 101 1620.58 101ZM1603.28 600C1603.52 600 1603.75 599.999 1603.98 599.996C1603.98 599.996 1603.99 599.997 1603.99 599.998C1603.99 599.999 1603.98 600 1603.98 600H1603.28ZM1615.94 598.649C1615.96 598.646 1615.96 598.666 1615.95 598.672C1615.94 598.674 1615.94 598.67 1615.94 598.663C1615.93 598.657 1615.94 598.651 1615.94 598.649ZM1111.73 38C1111.73 30.8203 1117.55 25 1124.73 25H1666.5C1673.68 25 1679.5 30.8203 1679.5 38C1679.5 45.1797 1673.68 51 1666.5 51H1124.73C1117.55 51 1111.73 45.1797 1111.73 38ZM251.621 390.413C231.441 367.474 231.721 333.034 252.271 310.426L432.885 111.723C443.834 99.6766 442.945 81.0352 430.899 70.0859C418.853 59.1366 400.212 60.0257 389.262 72.0716L157.578 326.961C153.53 331.415 151.1 336.769 150.254 342.304C149.657 346.206 149.459 350.2 149.663 354.142C149.994 360.543 152.406 366.881 156.968 372.067L263.342 492.987C274.094 505.209 292.718 506.401 304.941 495.649C317.163 484.897 318.355 466.273 307.603 454.05L251.621 390.413ZM1796.32 323.61L1629.87 133.64C1622.28 124.971 1611.31 120 1599.79 120L543.415 120C532.116 120 521.344 124.778 513.761 133.154L341.777 323.124C327.982 338.361 327.981 361.572 341.773 376.811L513.763 566.841C521.346 575.22 532.119 580 543.42 580H869.874H1250.27H1599.78C1611.31 580 1622.28 575.027 1629.87 566.356L1796.32 376.325C1809.54 361.238 1809.54 338.695 1796.32 323.61Z" fill="white"/>
</svg>
