<svg width="700" height="700" viewBox="0 0 700 700" fill="none" xmlns="http://www.w3.org/2000/svg">
<path fill-rule="evenodd" clip-rule="evenodd" d="M55.5235 160.834C54.1588 162.959 52.8169 165.098 51.4981 167.253C48.6145 171.963 50.2829 178.082 55.0736 180.83L68.0851 188.294C54.1507 212.587 43.3694 238.658 36.0741 265.884L21.5852 262.002C16.2506 260.572 10.7524 263.736 9.47592 269.109C-3.15864 322.295 -3.15864 377.705 9.47593 430.891C10.7524 436.264 16.2506 439.428 21.5852 437.999L36.0741 434.116C47.1023 475.275 66.1366 513.933 92.1602 547.848C100.819 559.132 110.186 569.806 120.19 579.81L114.291 585.709L114.268 585.732L114.245 585.755L109.584 590.416C105.678 594.322 105.669 600.664 109.684 604.457C111.267 605.952 112.865 607.433 114.475 608.898C114.498 608.919 114.521 608.94 114.544 608.96C173.018 662.13 247.92 694.06 327.109 699.251C411.84 704.804 495.701 679.365 563.066 627.674C630.432 575.982 676.709 501.563 693.275 418.282C708.757 340.447 697.301 259.833 661.077 189.59C656.869 181.43 646.663 178.722 638.711 183.313C630.76 187.903 628.078 198.054 632.246 206.236C664.459 269.474 674.572 341.874 660.664 411.795C659.281 418.747 657.669 425.632 655.835 432.438C653.995 436.364 649.471 438.424 645.155 437.145C642.017 436.215 639.76 433.748 638.915 430.799C644.835 409.63 648.431 387.803 649.589 365.701C652.067 318.423 643.32 271.229 624.064 227.979C604.808 184.729 575.589 146.65 538.796 116.856C526.397 106.815 513.255 97.8111 499.508 89.9087C497.131 87.041 496.578 82.9292 498.471 79.4983C500.207 76.3509 503.533 74.6267 506.873 74.8248C526.556 86.0459 545.016 99.3675 561.917 114.582C568.741 120.725 579.239 120.761 585.732 114.268C592.224 107.776 592.25 97.2171 585.457 91.0402C549.929 58.7366 508.086 34.0475 462.504 18.5745C411.667 1.3178 357.542 -4.01304 304.316 2.99435C251.089 10.0017 200.188 29.1595 155.55 58.9857C125.803 78.8623 99.3683 103.122 77.0978 130.855L55.5235 160.834ZM609.808 500C610.708 498.442 611.593 496.876 612.464 495.303C615.158 493.124 618.972 492.604 622.201 494.319C626.13 496.405 627.821 501.072 626.192 505.076C605.366 542.167 577.114 574.984 542.825 601.295C487.24 643.946 419.247 666.849 349.561 666.75C345.763 665.817 343.002 662.306 343.087 658.202C343.167 654.364 345.712 651.165 349.18 649.999C359.902 650.028 370.643 649.483 381.359 648.357C428.443 643.408 473.687 627.386 513.392 601.601C553.097 575.816 586.136 541 609.808 500ZM246.686 625.28C246.616 625.286 246.545 625.294 246.475 625.304C237.457 621.913 228.591 618.073 219.912 613.793C179.449 593.839 144.119 564.844 116.655 529.052C108.167 517.99 100.501 506.371 93.6991 494.289C93.3702 490.516 95.313 486.72 98.8933 484.798L101.977 483.142C106.843 480.53 108.653 474.475 106.221 469.516C83.7969 423.778 74.6372 372.527 79.9876 321.621C85.4451 269.696 105.744 220.559 138.298 180.016C141.756 175.71 141.316 169.405 137.14 165.791L134.493 163.501C132.084 161.415 130.909 158.426 131.067 155.492C131.099 154.907 131.057 154.312 130.922 153.749C160.317 120.935 196.718 95.1332 237.443 78.264C249.945 73.0855 262.754 68.7905 275.776 65.3945C275.859 65.416 275.943 65.4354 276.027 65.4524C279.64 66.185 282.683 68.9871 283.606 72.8414L284.422 76.2452C285.708 81.6161 291.103 84.9079 296.517 83.82C311.858 80.7375 327.409 78.9928 342.994 78.5905C346.93 80.6272 349.605 84.8106 349.604 89.6034C349.602 94.7536 346.508 99.1628 342.083 101.25C390.519 99.7092 438.707 112.343 480.519 138.095C535.099 171.713 574.602 225.093 590.799 287.115C606.997 349.137 598.638 415.017 567.465 471.029C548.784 504.595 522.773 533.066 491.745 554.567C495.755 554.561 499.685 556.357 502.194 559.812C505.723 564.674 505.286 571.232 501.359 575.395C500.203 576.171 499.039 576.94 497.87 577.699C461.936 601.034 420.991 615.534 378.38 620.013C341.512 623.888 304.303 620.165 269.034 609.146C263.763 607.499 258.054 610.21 256.214 615.418L255.048 618.718C253.721 622.472 250.377 624.947 246.686 625.28Z" fill="white"/>
<circle cx="350" cy="350" r="240" stroke="white" stroke-width="20"/>
</svg>
