<svg width="700" height="700" viewBox="0 0 700 700" fill="none" xmlns="http://www.w3.org/2000/svg">
<path fill-rule="evenodd" clip-rule="evenodd" d="M483.939 26.6423C415.841 -1.56502 340.658 -7.52133 269.11 9.4758C263.736 10.7523 260.572 16.2507 262.002 21.5853L263.296 26.415C264.725 31.7496 261.554 37.2177 256.266 38.8106C235.736 44.9943 215.812 53.2117 196.796 63.3757C171.492 76.9008 148.16 93.6795 127.369 113.229C123.346 117.012 117.024 117.025 113.119 113.119L109.584 109.584C105.678 105.679 99.3351 105.669 95.543 109.684C55.7213 151.849 26.9636 203.292 11.926 259.413C-3.11174 315.535 -3.92842 374.465 9.47593 430.891C10.7524 436.265 16.2506 439.428 21.5852 437.999L26.4148 436.705C31.7495 435.275 37.2176 438.446 38.8105 443.734C49.0992 477.892 64.9631 510.193 85.8248 539.305C94.2318 551.037 103.39 562.167 113.229 572.631C117.012 576.655 117.024 582.976 113.119 586.881L109.584 590.416C105.678 594.322 105.669 600.665 109.684 604.457C129.48 623.153 151.399 639.483 175 653.109C234.949 687.721 303.816 703.778 372.891 699.251C441.966 694.723 508.148 669.814 563.066 627.674C617.985 585.533 659.174 528.054 681.426 462.504C702.604 400.114 705.721 333.081 690.524 269.11C689.248 263.736 683.749 260.572 678.415 262.002L665.616 265.431C660.282 266.86 657.132 272.342 658.393 277.719C671.897 335.334 669.005 395.654 649.94 451.816C644.144 468.891 636.928 485.36 628.405 501.068C626.199 505.133 621.066 506.5 617.061 504.188C613.055 501.875 611.693 496.758 613.893 492.69C628.072 466.467 638.349 438.12 644.236 408.527C656.464 347.049 649.129 283.284 623.259 226.188C609.44 195.688 590.703 167.91 567.971 143.872C564.793 140.511 564.784 135.217 568.054 131.946C571.325 128.675 576.636 128.668 579.819 132.024C594.567 147.573 607.771 164.653 619.178 183.045C622.089 187.738 628.191 189.386 632.974 186.625L644.449 180C649.232 177.239 650.882 171.113 647.985 166.411C609.411 103.8 552.038 54.8496 483.939 26.6423ZM555.378 568.678L555.542 568.523C555.738 568.339 555.933 568.155 556.128 567.971C559.489 564.793 564.783 564.784 568.054 568.054C571.325 571.325 571.333 576.636 567.977 579.82C559.998 587.387 551.605 594.558 542.825 601.295C493.124 639.432 433.229 661.975 370.716 666.072C310.992 669.986 251.44 656.897 198.933 628.405C194.868 626.199 193.5 621.066 195.812 617.061C198.125 613.055 203.242 611.693 207.31 613.893C207.733 614.122 208.157 614.35 208.581 614.576C263.862 644.125 327.011 655.615 389.158 647.434C451.305 639.252 509.328 611.809 555.078 568.959C555.178 568.866 555.278 568.772 555.378 568.678ZM151.081 165.221C154.84 161.174 154.855 154.855 150.95 150.949L149.093 149.093C145.188 145.188 145.176 138.843 149.212 135.073C167.853 117.658 188.732 102.695 211.35 90.605C248.274 70.8689 288.986 59.2431 330.763 56.5049C372.541 53.7666 414.422 59.9791 453.606 74.7268C465.533 79.2158 477.126 84.4642 488.319 90.4286C493.193 93.0258 494.824 99.1577 492.062 103.941L490.75 106.214C487.989 110.997 489.639 117.097 494.317 120.033C539.415 148.334 575.265 189.319 597.299 237.95C611.942 270.267 620.024 304.946 621.316 340.002C621.317 340.032 621.318 340.062 621.319 340.092C621.663 349.512 621.517 358.948 620.877 368.363C620.471 374.336 615.102 378.638 609.15 377.994C603.198 377.35 598.919 372.003 599.304 366.028C599.525 362.604 599.675 359.177 599.754 355.749C599.117 357.038 598.735 358.479 598.674 359.998C597.388 391.998 589.935 423.483 576.691 452.713C562.071 484.981 540.729 513.756 514.095 537.114C487.46 560.472 456.145 577.875 422.245 588.159C388.344 598.442 352.638 601.37 317.515 596.746C282.392 592.122 248.661 580.053 218.577 561.345C188.493 542.638 162.75 517.723 143.068 488.268C123.386 458.812 110.22 425.494 104.449 390.541C99.2219 358.88 100.172 326.539 107.212 295.295C107.591 293.614 107.545 291.924 107.141 290.351C105.422 295.845 99.8748 299.352 94.1705 298.192C88.2402 296.986 84.3879 291.195 85.8323 285.318C89.7359 269.435 95.0695 253.939 101.767 239.018C102.189 238.078 102.73 237.235 103.364 236.496C115.339 210.478 131.41 186.397 151.081 165.221Z" fill="white"/>
<circle cx="350" cy="350" r="240" stroke="white" stroke-width="20"/>
</svg>
