<svg width="700" height="700" viewBox="0 0 700 700" fill="none" xmlns="http://www.w3.org/2000/svg">
<circle cx="350" cy="350" r="240" stroke="white" stroke-width="20"/>
<path fill-rule="evenodd" clip-rule="evenodd" d="M262.001 21.5852C260.572 16.2506 263.735 10.7525 269.108 9.47607C318.019 -2.14275 368.899 -3.09757 418.282 6.72517C470.936 17.1987 520.475 39.6446 563.066 72.3264C605.658 105.008 640.161 147.05 663.905 195.199C686.174 240.356 698.421 289.75 699.857 340.001C700.015 345.522 695.523 350 690 350H676.75C671.227 350 666.766 345.521 666.592 340.001C665.166 294.852 654.098 250.488 634.084 209.905C632.261 206.207 630.367 202.549 628.405 198.932C626.199 194.867 621.066 193.5 617.06 195.812C613.055 198.125 611.693 203.242 613.893 207.31C628.072 233.533 638.349 261.881 644.235 291.473C652.598 333.516 651.812 376.628 642.205 417.945C640.954 423.324 644.102 428.805 649.437 430.234L655.957 431.981L663.926 434.116L678.415 437.998C683.749 439.428 686.929 444.916 685.348 450.208C673.16 490.997 653.623 529.248 627.674 563.067C601.724 596.885 569.832 625.656 533.588 647.986C528.886 650.883 522.761 649.232 520 644.449L517.5 640.119C514.738 635.336 508.628 633.712 503.762 636.325C433.92 673.835 352.753 684.521 275.583 666.366C270.207 665.101 264.725 668.25 263.296 673.585L262.001 678.415C260.572 683.749 255.082 686.929 249.791 685.348C167.48 660.754 97.0738 606.73 52.0147 533.589C49.1179 528.887 50.7683 522.761 55.5513 520L59.8813 517.5C64.6643 514.739 66.2883 508.629 63.6752 503.764C39.706 459.134 26.6898 409.879 25.1532 359.998C24.9831 354.478 20.5221 350 14.9993 350H9.99987C4.47702 350 -0.0150543 345.521 0.142704 340.001C1.79936 282.028 17.8404 225.317 46.891 175C75.9416 124.683 117.034 82.4357 166.412 52.0144C171.114 49.1175 177.238 50.7684 180 55.5514L187.5 68.5417L191.625 75.6864L195.091 81.6901C197.802 86.3858 203.799 87.9796 208.581 85.4236C249.783 63.4006 295.355 51.4089 341.626 50.1166C346.249 49.9875 350 46.2501 350 41.6249C350 36.9995 346.25 33.2384 341.626 33.3607C320.15 33.9287 298.736 36.6813 277.718 41.6077C272.34 42.868 266.86 39.7184 265.431 34.3837L262.001 21.5852ZM567.976 120.181C571.332 123.364 571.325 128.675 568.054 131.946C564.783 135.217 559.489 135.207 556.128 132.029C555.779 131.699 555.429 131.37 555.078 131.041C520.979 99.1043 480.064 75.7262 435.704 62.5023C431.272 61.1809 428.616 56.6002 429.813 52.1325C431.01 47.6647 435.606 45.0024 440.041 46.3172C477.142 57.3175 511.994 75.0482 542.825 98.7054C551.597 105.437 559.991 112.607 567.976 120.181ZM494.316 579.967C489.638 582.903 487.988 589.003 490.75 593.786L492.062 596.059C494.824 600.842 493.191 606.975 488.317 609.573C422.641 644.572 345.998 653.428 273.875 634.103C226.849 621.503 184.15 597.565 149.212 564.928C145.176 561.158 145.187 554.812 149.093 550.907L150.949 549.051C154.855 545.145 154.839 538.826 151.081 534.779C120.923 502.315 99.2264 463.022 87.7823 420.387C87.7649 420.322 87.8035 420.255 87.8685 420.238C87.9333 420.221 87.9719 420.154 87.9548 420.089C87.5613 418.597 87.1805 417.101 86.8125 415.601C85.3699 409.724 89.224 403.934 95.1547 402.73C101.085 401.526 106.845 405.365 108.308 411.237C108.564 412.263 108.826 413.286 109.094 414.308C109.127 414.433 109.255 414.507 109.38 414.474C109.504 414.441 109.578 414.313 109.545 414.188C99.0097 374.723 98.3502 333.269 107.626 293.486C116.92 253.628 135.9 216.676 162.886 185.905C189.871 155.134 224.029 131.493 262.334 117.076C300.638 102.66 341.907 97.912 382.484 103.254C423.062 108.596 461.696 123.863 494.964 147.703C528.232 171.542 555.107 203.218 573.209 239.925C591.311 276.632 600.081 317.237 598.742 358.143C597.406 398.931 586.062 438.763 565.709 474.131C565.611 474.3 565.669 474.517 565.838 474.614C566.008 474.712 566.225 474.654 566.322 474.484C566.564 474.06 566.804 473.636 567.044 473.211C570.013 467.938 576.584 465.764 581.983 468.499C587.382 471.233 589.561 477.839 586.611 483.122C586.12 484.001 585.625 484.876 585.125 485.749C585.125 485.749 585.125 485.749 585.125 485.75C585.126 485.75 585.126 485.75 585.126 485.751C585.045 485.89 584.964 486.03 584.884 486.169C577.31 499.329 568.643 511.831 558.974 523.543C558.764 523.797 558.546 524.037 558.319 524.266C557.944 524.643 557.563 525.015 557.219 525.421C539.263 546.632 518.073 565.06 494.316 579.967ZM80.938 217.313C73.4478 232.502 67.2938 248.222 62.502 264.296C61.1807 268.729 56.6001 271.384 52.1323 270.187C47.6646 268.99 45.0023 264.394 46.3171 259.959C53.3595 236.207 63.1938 213.263 75.6863 191.625C88.1788 169.987 103.132 149.999 120.181 132.024C123.364 128.668 128.675 128.675 131.946 131.946C135.216 135.217 135.207 140.511 132.029 143.872C111.546 165.532 94.2828 190.253 80.938 217.313Z" fill="white"/>
</svg>
