<svg width="23" height="23" viewBox="0 0 23 23" fill="none" xmlns="http://www.w3.org/2000/svg">
<path d="M20.875 0.5625H2.12012C1.26074 0.5625 0.5625 1.27051 0.5625 2.13965V20.8604C0.5625 21.7295 1.26074 22.4375 2.12012 22.4375H20.875C21.7344 22.4375 22.4375 21.7295 22.4375 20.8604V2.13965C22.4375 1.27051 21.7344 0.5625 20.875 0.5625ZM7.17383 19.3125H3.93164V8.87305H7.17871V19.3125H7.17383ZM5.55273 7.44727C4.5127 7.44727 3.67285 6.60254 3.67285 5.56738C3.67285 4.53223 4.5127 3.6875 5.55273 3.6875C6.58789 3.6875 7.43262 4.53223 7.43262 5.56738C7.43262 6.60742 6.59277 7.44727 5.55273 7.44727V7.44727ZM19.3271 19.3125H16.085V14.2344C16.085 13.0234 16.0605 11.4658 14.4004 11.4658C12.7109 11.4658 12.4521 12.7842 12.4521 14.1465V19.3125H9.20996V8.87305H12.3203V10.2988H12.3643C12.7988 9.47852 13.8584 8.61426 15.4355 8.61426C18.7168 8.61426 19.3271 10.7773 19.3271 13.5898V19.3125V19.3125Z" fill="white"/>
</svg>
