<svg width="350" height="350" viewBox="0 0 350 350" fill="none" xmlns="http://www.w3.org/2000/svg">
<mask id="mask0_426_220" style="mask-type:alpha" maskUnits="userSpaceOnUse" x="0" y="0" width="350" height="350">
<path d="M350 290C350 323.137 323.137 350 290 350L0 350L3.0598e-05 -3.0598e-05L350 0L350 290Z" fill="#C4C4C4"/>
</mask>
<g mask="url(#mask0_426_220)">
<path fill-rule="evenodd" clip-rule="evenodd" d="M-350 -290C-350 -323.137 -323.137 -350 -290 -350H290C323.137 -350 350 -323.137 350 -290V-285C350 -279.477 345.523 -275 340 -275H335C329.477 -275 325 -279.477 325 -285V-300C325 -313.807 313.807 -325 300 -325L187.5 -325C180.596 -325 175 -319.404 175 -312.5C175 -305.596 180.596 -300 187.5 -300H240C273.137 -300 300 -273.137 300 -240V87.5C300 94.4036 305.596 100 312.5 100C319.404 100 325 94.4036 325 87.5V-165C325 -170.523 329.477 -175 335 -175H340C345.523 -175 350 -170.523 350 -165V290C350 323.137 323.137 350 290 350H-290C-323.137 350 -350 323.137 -350 290V236C-350 230.477 -345.523 226 -340 226H-335C-329.477 226 -325 221.523 -325 216V86C-325 80.4771 -329.477 76 -335 76H-340C-345.523 76 -350 71.5229 -350 66V-65C-350 -70.5229 -345.523 -75 -340 -75H-335C-329.477 -75 -325 -79.4771 -325 -85V-165C-325 -170.523 -329.477 -175 -335 -175H-340C-345.523 -175 -350 -179.477 -350 -185V-290ZM0 -262.5C0 -255.603 -5.58575 -250.011 -12.4803 -250H-190C-223.137 -250 -250 -223.137 -250 -190V190C-250 223.137 -223.137 250 -190 250H162.5C169.404 250 175 255.596 175 262.5C175 269.404 169.404 275 162.5 275H-162.5C-169.404 275 -175 280.596 -175 287.5C-175 294.404 -180.596 300 -187.5 300H-275C-288.807 300 -300 288.807 -300 275L-300 188.5C-300 181.596 -294.404 176 -287.5 176C-280.596 176 -275 170.404 -275 163.5L-275 0V-250V-275C-275 -288.807 -263.807 -300 -250 -300L-87.5 -300C-80.5964 -300 -75 -294.404 -75 -287.5C-75 -280.596 -69.4035 -275 -62.5 -275L-12.5 -275C-5.59644 -275 0 -269.404 0 -262.5ZM312.5 160C319.404 160 325 165.596 325 172.5V300C325 313.807 313.807 325 300 325H-12.5C-19.4036 325 -25 319.404 -25 312.5C-25 305.596 -19.4036 300 -12.5 300H240C273.137 300 300 273.137 300 240V172.5C300 165.596 305.596 160 312.5 160ZM-230 -190C-230 -212.091 -212.091 -230 -190 -230H190C212.091 -230 230 -212.091 230 -190V190C230 212.091 212.091 230 190 230H-190C-212.091 230 -230 212.091 -230 190V-190Z" fill="white"/>
</g>
</svg>
