<svg width="350" height="350" viewBox="0 0 350 350" fill="none" xmlns="http://www.w3.org/2000/svg">
<mask id="mask0_426_190" style="mask-type:alpha" maskUnits="userSpaceOnUse" x="0" y="0" width="350" height="350">
<path d="M290 -2.62268e-06C323.137 -1.17422e-06 350 26.8629 350 60L350 350L-1.5299e-05 350L0 -1.5299e-05L290 -2.62268e-06Z" fill="#C4C4C4"/>
</mask>
<g mask="url(#mask0_426_190)">
<path fill-rule="evenodd" clip-rule="evenodd" d="M-350 60C-350 26.8629 -323.137 0 -290 0H290C323.137 0 350 26.8629 350 60V65C350 70.5229 345.523 75 340 75H335C329.477 75 325 70.5229 325 65V50C325 36.1929 313.807 25 300 25L187.5 25C180.596 25 175 30.5964 175 37.5C175 44.4036 180.596 50 187.5 50H240C273.137 50 300 76.8629 300 110V437.5C300 444.404 305.596 450 312.5 450C319.404 450 325 444.404 325 437.5V185C325 179.477 329.477 175 335 175H340C345.523 175 350 179.477 350 185V640C350 673.137 323.137 700 290 700H-290C-323.137 700 -350 673.137 -350 640V586C-350 580.477 -345.523 576 -340 576H-335C-329.477 576 -325 571.523 -325 566V436C-325 430.477 -329.477 426 -335 426H-340C-345.523 426 -350 421.523 -350 416V285C-350 279.477 -345.523 275 -340 275H-335C-329.477 275 -325 270.523 -325 265V185C-325 179.477 -329.477 175 -335 175H-340C-345.523 175 -350 170.523 -350 165V60ZM0 87.5C0 94.397 -5.58575 99.9893 -12.4803 100H-190C-223.137 100 -250 126.863 -250 160V540C-250 573.137 -223.137 600 -190 600H162.5C169.404 600 175 605.596 175 612.5C175 619.404 169.404 625 162.5 625H-162.5C-169.404 625 -175 630.596 -175 637.5C-175 644.404 -180.596 650 -187.5 650H-275C-288.807 650 -300 638.807 -300 625L-300 538.5C-300 531.596 -294.404 526 -287.5 526C-280.596 526 -275 520.404 -275 513.5L-275 350V100V75C-275 61.1929 -263.807 50 -250 50L-87.5 50C-80.5964 50 -75 55.5965 -75 62.5C-75 69.4036 -69.4035 75 -62.5 75L-12.5 75C-5.59644 75 0 80.5965 0 87.5ZM312.5 510C319.404 510 325 515.596 325 522.5V650C325 663.807 313.807 675 300 675H-12.5C-19.4036 675 -25 669.404 -25 662.5C-25 655.596 -19.4036 650 -12.5 650H240C273.137 650 300 623.137 300 590V522.5C300 515.596 305.596 510 312.5 510ZM-230 160C-230 137.909 -212.091 120 -190 120H190C212.091 120 230 137.909 230 160V540C230 562.091 212.091 580 190 580H-190C-212.091 580 -230 562.091 -230 540V160Z" fill="white"/>
</g>
</svg>
