<svg width="32" height="32" viewBox="0 0 32 32" fill="none" xmlns="http://www.w3.org/2000/svg">
<g filter="url(#filter0_d_1205_453)">
<path d="M16.5314 7.40583C16.8937 7.04355 16.8805 6.45148 16.4965 6.11229C14.9753 4.76859 13.4942 3.60302 12.1277 2.66046C11.7796 2.4203 11.3111 2.46919 11.012 2.76827C10.6091 3.17116 10.682 3.84342 11.1506 4.16767C12.4317 5.05434 13.8347 6.15797 15.2872 7.43979C15.6468 7.75716 16.1922 7.745 16.5314 7.40583Z" fill="white"/>
<path fill-rule="evenodd" clip-rule="evenodd" d="M19.7937 18.3633C20.1127 18.0442 20.618 18.0117 20.9817 18.2789C21.8117 18.8887 22.6003 19.4172 23.3297 19.8549C24.5153 20.5662 25.5278 19.5538 24.8165 18.3682C24.3788 17.6387 23.8503 16.8502 23.2404 16.0201C22.9733 15.6565 23.0058 15.1512 23.3248 14.8321C23.7084 14.4486 24.3427 14.4888 24.6643 14.9257C27.3985 18.6397 28.6656 21.6797 27.6534 22.6919C26.6412 23.7041 23.6013 22.4369 19.8872 19.7028C19.4504 19.3812 19.4101 18.7468 19.7937 18.3633ZM26.2025 21.7238C26.204 21.7249 26.2011 21.7227 26.2025 21.7238ZM26.6853 21.241C26.6865 21.2424 26.6842 21.2395 26.6853 21.241Z" fill="white"/>
<path fill-rule="evenodd" clip-rule="evenodd" d="M7.27335 4.47552C7.55915 4.18972 7.54977 3.61935 7.37468 3.25506C7.06386 2.60836 7.5699 2.10232 8.2166 2.41314C8.58089 2.58823 9.15126 2.59761 9.43706 2.31181C9.85897 1.8899 9.76737 1.18029 9.23412 0.912608C7.35656 -0.0298977 5.93875 -0.284058 5.30812 0.346578C4.67748 0.977215 4.93164 2.39502 5.87415 4.27258C6.14183 4.80583 6.85144 4.89743 7.27335 4.47552ZM6.75902 1.31465C6.75756 1.31351 6.76048 1.31579 6.75902 1.31465ZM6.27619 1.79748C6.27505 1.79602 6.27733 1.79894 6.27619 1.79748Z" fill="white"/>
<path d="M4.19721 1.71143C4.46016 1.44848 4.88648 1.44848 5.14942 1.71143L6.99037 3.55238C7.25332 3.81532 7.25332 4.24164 6.99037 4.50459C6.72743 4.76754 6.30111 4.76754 6.03816 4.50459L4.19721 2.66364C3.93426 2.4007 3.93426 1.97437 4.19721 1.71143Z" fill="white"/>
<path d="M24.2234 11.5849C24.7946 11.5849 25.2641 12.0496 25.1957 12.6166C25.0342 13.9558 24.5599 15.2435 23.8052 16.373C22.8582 17.7903 21.5122 18.895 19.9373 19.5473C18.3625 20.1996 16.6296 20.3703 14.9578 20.0377C13.6254 19.7727 12.3795 19.1975 11.3184 18.3648C10.8691 18.0121 10.8724 17.3516 11.2763 16.9477C11.6802 16.5438 12.3311 16.5517 12.7935 16.8871C13.5552 17.4396 14.4305 17.8239 15.3613 18.009C16.6319 18.2618 17.9489 18.1321 19.1458 17.6363C20.3426 17.1405 21.3656 16.301 22.0853 15.2239C22.6126 14.4347 22.9598 13.5441 23.1077 12.6148C23.1976 12.0507 23.6523 11.5849 24.2234 11.5849Z" fill="white"/>
<path d="M9.05494 11.5849C8.48376 11.5849 8.01432 11.1202 8.0827 10.5531C8.24418 9.21392 8.71847 7.92623 9.4732 6.7967C10.4202 5.3794 11.7662 4.27475 13.341 3.62244C14.9159 2.97012 16.6488 2.79945 18.3206 3.132C19.6529 3.39702 20.8989 3.97218 21.96 4.80494C22.4093 5.15757 22.4059 5.8181 22.0021 6.22198C21.5982 6.62587 20.9472 6.61797 20.4849 6.28262C19.7231 5.73015 18.8479 5.34583 17.917 5.16068C16.6465 4.90795 15.3295 5.03766 14.1326 5.53342C12.9357 6.02917 11.9128 6.86871 11.193 7.94585C10.6658 8.73497 10.3186 9.62564 10.1706 10.5549C10.0808 11.119 9.62612 11.5849 9.05494 11.5849Z" fill="white"/>
</g>
<defs>
<filter id="filter0_d_1205_453" x="0" y="0" width="32" height="31.0385" filterUnits="userSpaceOnUse" color-interpolation-filters="sRGB">
<feFlood flood-opacity="0" result="BackgroundImageFix"/>
<feColorMatrix in="SourceAlpha" type="matrix" values="0 0 0 0 0 0 0 0 0 0 0 0 0 0 0 0 0 0 127 0" result="hardAlpha"/>
<feOffset dy="4"/>
<feGaussianBlur stdDeviation="2"/>
<feComposite in2="hardAlpha" operator="out"/>
<feColorMatrix type="matrix" values="0 0 0 0 0 0 0 0 0 0 0 0 0 0 0 0 0 0 0.5 0"/>
<feBlend mode="normal" in2="BackgroundImageFix" result="effect1_dropShadow_1205_453"/>
<feBlend mode="normal" in="SourceGraphic" in2="effect1_dropShadow_1205_453" result="shape"/>
</filter>
</defs>
</svg>
