<svg width="24" height="24" viewBox="0 0 24 24" fill="none" xmlns="http://www.w3.org/2000/svg">
<path d="M5.3163 3.772C3.86246 2.62745 2.84771 1.82858 2.37302 2.03156C2.37076 2.03253 2.36868 2.03389 2.36688 2.03556C2.15603 2.23236 2.46597 2.77038 3.01596 3.63092C3.03086 3.65424 2.99958 3.6795 2.98001 3.65993L2.03944 2.71935C2.02489 2.7048 2 2.71511 2 2.73569V3.45591C2 3.462 2.00241 3.46786 2.00671 3.47218L5.14642 6.6348C5.15632 6.6448 5.17274 6.64368 5.18123 6.63252L5.66238 5.99824C5.66886 5.98972 5.66857 5.9778 5.66176 5.96952C5.04708 5.22311 4.56578 4.5507 4.7724 4.45887C4.90406 4.40036 5.23842 4.66276 5.63092 4.9708C5.847 5.14038 6.08072 5.3238 6.30792 5.4751C6.3232 5.48528 6.34344 5.4742 6.34344 5.45585V4.58576C6.34344 4.57859 6.34004 4.57177 6.33436 4.5674C5.97464 4.29029 5.63489 4.02281 5.3163 3.772Z" fill="white"/>
<path fill-rule="evenodd" clip-rule="evenodd" d="M6.52824 17.3912V17.7462C6.52824 17.7528 6.5312 17.7591 6.53604 17.7635C10.9977 21.7841 15.7413 19.375 16.9799 18.3459C16.9886 18.3387 17.0005 18.3396 17.0091 18.347C19.695 20.6484 21.599 21.9718 21.9584 21.6635C21.9604 21.6618 21.9619 21.6598 21.9631 21.6575C22.1867 21.2326 21.4321 20.0882 18.6455 16.7532C18.639 16.7454 18.6382 16.734 18.6436 16.7255C19.7034 15.0642 20.0898 14.0132 20.2278 12.0144C20.2283 12.0077 20.2258 12.001 20.221 11.9963L17.5186 9.3166C17.504 9.30212 17.4792 9.31244 17.4792 9.333V10.0536C17.4792 10.0596 17.4816 10.0655 17.4859 10.0698L19.3197 11.9266C19.3246 11.9315 19.327 11.9386 19.3262 11.9456C19.112 13.8036 18.741 14.6253 17.8879 15.8621C17.8797 15.874 17.8626 15.8757 17.8524 15.8655L15.0235 13.0366C15.009 13.0221 14.9841 13.0324 14.9841 13.053V13.7732C14.9841 13.7793 14.9864 13.7851 14.9907 13.7894L17.465 16.3096C17.4732 16.3179 17.4738 16.331 17.4666 16.3402C14.691 19.8691 9.50904 19.8871 6.5666 17.3736C6.55156 17.3608 6.52824 17.3714 6.52824 17.3912ZM18.1492 17.2944C19.2267 18.6427 19.5185 19.0662 19.4661 19.212C19.2772 19.2244 18.9682 19.0363 17.5486 17.8951C17.7974 17.6676 17.9316 17.5375 18.1492 17.2944Z" fill="white"/>
<path d="M5.3163 3.772C3.86246 2.62745 2.84771 1.82858 2.37302 2.03156C2.37076 2.03253 2.36868 2.03389 2.36688 2.03556C2.15603 2.23236 2.46597 2.77038 3.01596 3.63092C3.03086 3.65424 2.99958 3.6795 2.98001 3.65993L2.03944 2.71935C2.02489 2.7048 2 2.71511 2 2.73569V3.45591C2 3.462 2.00241 3.46786 2.00671 3.47218L5.14642 6.6348C5.15632 6.6448 5.17274 6.64368 5.18123 6.63252L5.66238 5.99824C5.66886 5.98972 5.66857 5.9778 5.66176 5.96952C5.04708 5.22311 4.56578 4.5507 4.7724 4.45887C4.90406 4.40036 5.23842 4.66276 5.63092 4.9708C5.847 5.14038 6.08072 5.3238 6.30792 5.4751C6.3232 5.48528 6.34344 5.4742 6.34344 5.45585V4.58576C6.34344 4.57859 6.34004 4.57177 6.33436 4.5674C5.97464 4.29029 5.63489 4.02281 5.3163 3.772Z" fill="white"/>
<path fill-rule="evenodd" clip-rule="evenodd" d="M6.52824 17.3912V17.7462C6.52824 17.7528 6.5312 17.7591 6.53604 17.7635C10.9977 21.7841 15.7413 19.375 16.9799 18.3459C16.9886 18.3387 17.0005 18.3396 17.0091 18.347C19.695 20.6484 21.599 21.9718 21.9584 21.6635C21.9604 21.6618 21.9619 21.6598 21.9631 21.6575C22.1867 21.2326 21.4321 20.0882 18.6455 16.7532C18.639 16.7454 18.6382 16.734 18.6436 16.7255C19.7034 15.0642 20.0898 14.0132 20.2278 12.0144C20.2283 12.0077 20.2258 12.001 20.221 11.9963L17.5186 9.3166C17.504 9.30212 17.4792 9.31244 17.4792 9.333V10.0536C17.4792 10.0596 17.4816 10.0655 17.4859 10.0698L19.3197 11.9266C19.3246 11.9315 19.327 11.9386 19.3262 11.9456C19.112 13.8036 18.741 14.6253 17.8879 15.8621C17.8797 15.874 17.8626 15.8757 17.8524 15.8655L15.0235 13.0366C15.009 13.0221 14.9841 13.0324 14.9841 13.053V13.7732C14.9841 13.7793 14.9864 13.7851 14.9907 13.7894L17.465 16.3096C17.4732 16.3179 17.4738 16.331 17.4666 16.3402C14.691 19.8691 9.50904 19.8871 6.5666 17.3736C6.55156 17.3608 6.52824 17.3714 6.52824 17.3912ZM18.1492 17.2944C19.2267 18.6427 19.5185 19.0662 19.4661 19.212C19.2772 19.2244 18.9682 19.0363 17.5486 17.8951C17.7974 17.6676 17.9316 17.5375 18.1492 17.2944Z" fill="white"/>
<path d="M5.3163 3.772C3.86246 2.62745 2.84771 1.82858 2.37302 2.03156C2.37076 2.03253 2.36868 2.03389 2.36688 2.03556C2.15603 2.23236 2.46597 2.77038 3.01596 3.63092C3.03086 3.65424 2.99958 3.6795 2.98001 3.65993L2.03944 2.71935C2.02489 2.7048 2 2.71511 2 2.73569V3.45591C2 3.462 2.00241 3.46786 2.00671 3.47218L5.14642 6.6348C5.15632 6.6448 5.17274 6.64368 5.18123 6.63252L5.66238 5.99824C5.66886 5.98972 5.66857 5.9778 5.66176 5.96952C5.04708 5.22311 4.56578 4.5507 4.7724 4.45887C4.90406 4.40036 5.23842 4.66276 5.63092 4.9708C5.847 5.14038 6.08072 5.3238 6.30792 5.4751C6.3232 5.48528 6.34344 5.4742 6.34344 5.45585V4.58576C6.34344 4.57859 6.34004 4.57177 6.33436 4.5674C5.97464 4.29029 5.63489 4.02281 5.3163 3.772ZM6.52824 17.3912V17.7462C6.52824 17.7528 6.5312 17.7591 6.53604 17.7635C10.9977 21.7841 15.7413 19.375 16.9799 18.3459C16.9886 18.3387 17.0005 18.3396 17.0091 18.347C19.695 20.6484 21.599 21.9718 21.9584 21.6635C21.9604 21.6618 21.9619 21.6598 21.9631 21.6575C22.1867 21.2326 21.4321 20.0882 18.6455 16.7532C18.639 16.7454 18.6382 16.734 18.6436 16.7255C19.7034 15.0642 20.0898 14.0132 20.2278 12.0144C20.2283 12.0077 20.2258 12.001 20.221 11.9963L17.5186 9.3166C17.504 9.30212 17.4792 9.31244 17.4792 9.333V10.0536C17.4792 10.0596 17.4816 10.0655 17.4859 10.0698L19.3197 11.9266C19.3246 11.9315 19.327 11.9386 19.3262 11.9456C19.112 13.8036 18.741 14.6253 17.8879 15.8621C17.8797 15.874 17.8626 15.8757 17.8524 15.8655L15.0235 13.0366C15.009 13.0221 14.9841 13.0324 14.9841 13.053V13.7732C14.9841 13.7793 14.9864 13.7851 14.9907 13.7894L17.465 16.3096C17.4732 16.3179 17.4738 16.331 17.4666 16.3402C14.691 19.8691 9.50904 19.8871 6.5666 17.3736C6.55156 17.3608 6.52824 17.3714 6.52824 17.3912ZM18.1492 17.2944C19.2267 18.6427 19.5185 19.0662 19.4661 19.212C19.2772 19.2244 18.9682 19.0363 17.5486 17.8951C17.7974 17.6676 17.9316 17.5375 18.1492 17.2944Z" stroke="white" stroke-width="0.3"/>
</svg>
