<svg width="24" height="23" viewBox="0 0 24 23" fill="none" xmlns="http://www.w3.org/2000/svg">
<path d="M18.0897 5.96624C18.4882 5.56767 18.4915 4.91584 18.0481 4.56785C17.001 3.74606 15.7715 3.17848 14.4566 2.91694C12.8068 2.58877 11.0968 2.7572 9.5427 3.40092C7.98862 4.04464 6.66032 5.13475 5.72578 6.53338C4.98099 7.64805 4.51295 8.91877 4.35359 10.2403C4.28612 10.7999 4.74937 11.2585 5.31303 11.2585C5.87669 11.2585 6.3254 10.7988 6.41403 10.2421C6.56005 9.32507 6.90265 8.44613 7.42297 7.66741C8.13322 6.60444 9.14273 5.77597 10.3238 5.28674C11.5049 4.79751 12.8046 4.6695 14.0584 4.91891C14.977 5.10162 15.8408 5.48088 16.5924 6.02607C17.0487 6.35701 17.6911 6.36481 18.0897 5.96624Z" fill="white"/>
<path d="M7.50515 16.5508C7.10658 16.9493 7.10327 17.6012 7.54668 17.9492C8.59383 18.7709 9.82333 19.3385 11.1382 19.6001C12.788 19.9282 14.498 19.7598 16.0521 19.1161C17.6062 18.4724 18.9345 17.3823 19.869 15.9836C20.6138 14.869 21.0819 13.5982 21.2412 12.2767C21.3087 11.7171 20.8454 11.2585 20.2818 11.2585C19.7181 11.2585 19.2694 11.7183 19.1808 12.2749C19.0348 13.1919 18.6922 14.0709 18.1718 14.8496C17.4616 15.9126 16.4521 16.741 15.271 17.2303C14.0899 17.7195 12.7902 17.8475 11.5364 17.5981C10.6178 17.4154 9.75406 17.0361 9.00236 16.4909C8.54608 16.16 7.90371 16.1522 7.50515 16.5508Z" fill="white"/>
<path d="M7.26795 2.75425C7.56342 2.45878 8.02635 2.41074 8.37003 2.64841C9.87842 3.6915 11.5274 5.00877 13.214 6.53846C13.5852 6.87514 13.5945 7.45323 13.2401 7.8076C12.9024 8.14535 12.3582 8.15411 12.0042 7.83338C10.3876 6.36844 8.82077 5.11761 7.40375 4.13449C6.94217 3.81425 6.87071 3.1515 7.26795 2.75425Z" fill="white"/>
<path fill-rule="evenodd" clip-rule="evenodd" d="M19.3912 19.5935C18.5173 19.0691 17.5575 18.4127 16.5428 17.6409C16.1844 17.3683 15.6786 17.397 15.3602 17.7154C14.9855 18.0901 15.0199 18.7081 15.4413 19.0293C19.3552 22.0113 22.6094 23.4417 23.658 22.3931C24.7066 21.3444 23.2762 18.0903 20.2942 14.1764C19.9731 13.7549 19.355 13.7206 18.9803 14.0953C18.6619 14.4137 18.6332 14.9195 18.9058 15.2779C19.6776 16.2926 20.334 17.2524 20.8584 18.1263C21.5603 19.2963 20.5612 20.2954 19.3912 19.5935ZM22.7027 20.9613C22.7015 20.9598 22.7038 20.9627 22.7027 20.9613ZM22.2262 21.4377C22.2247 21.4366 22.2276 21.4389 22.2262 21.4377Z" fill="white"/>
<path fill-rule="evenodd" clip-rule="evenodd" d="M5.87367 3.14163C5.87535 3.14264 5.87751 3.14237 5.8789 3.14098L6.37004 2.64984C6.77667 2.24321 6.69971 1.56222 6.19782 1.28148C3.9909 0.0469824 2.30717 -0.35823 1.60693 0.342015C1.32478 0.624167 1.2221 1.06599 1.28084 1.63738C1.30344 1.85722 1.01632 2.01885 0.860054 1.86259C0.77649 1.77902 0.641006 1.77902 0.557441 1.86259L0.207587 2.21244C-0.0691958 2.48923 -0.0691958 2.93798 0.207587 3.21476L2.90949 5.91666C2.93958 5.94675 2.98836 5.94675 3.01846 5.91666L3.07943 5.85568C3.08338 5.85173 3.08997 5.85249 3.09292 5.85723C3.09586 5.86197 3.10246 5.86273 3.1064 5.85879L3.89509 5.0701C4.18475 4.78044 4.23813 4.33203 4.04027 3.97334C3.99971 3.8998 3.96045 3.82742 3.92248 3.75619C3.48711 2.93956 4.20434 2.22213 5.02098 2.65749C5.28898 2.80037 5.57344 2.96149 5.87367 3.14163ZM3.03872 1.29734C3.03728 1.29621 3.04017 1.29846 3.03872 1.29734ZM2.56225 1.77381C2.56338 1.77525 2.56113 1.77237 2.56225 1.77381Z" fill="white"/>
</svg>
