<svg width="22" height="21" viewBox="0 0 22 21" fill="none" xmlns="http://www.w3.org/2000/svg">
<path d="M4.3163 2.772C2.86246 1.62745 1.84771 0.828583 1.37302 1.03156C1.37076 1.03253 1.36868 1.03389 1.36688 1.03556C1.15603 1.23236 1.46597 1.77038 2.01596 2.63092C2.03086 2.65424 1.99958 2.6795 1.98001 2.65993L1.03944 1.71935C1.02489 1.7048 1 1.71511 1 1.73569V2.45591C1 2.462 1.00241 2.46786 1.00671 2.47218L4.14642 5.6348C4.15632 5.6448 4.17274 5.64368 4.18123 5.63252L4.66238 4.99824C4.66886 4.98972 4.66857 4.9778 4.66176 4.96952C4.04708 4.22311 3.56578 3.5507 3.7724 3.45887C3.90406 3.40036 4.23842 3.66276 4.63092 3.9708C4.847 4.14038 5.08072 4.3238 5.30792 4.4751C5.3232 4.48528 5.34344 4.4742 5.34344 4.45585V3.58576C5.34344 3.57859 5.34004 3.57177 5.33436 3.5674C4.97464 3.29029 4.63489 3.02281 4.3163 2.772Z" fill="white"/>
<path fill-rule="evenodd" clip-rule="evenodd" d="M5.52824 16.3912V16.7462C5.52824 16.7528 5.5312 16.7591 5.53604 16.7635C9.99768 20.7841 14.7413 18.375 15.9799 17.3459C15.9886 17.3387 16.0005 17.3396 16.0091 17.347C18.695 19.6484 20.599 20.9718 20.9584 20.6635C20.9604 20.6618 20.9619 20.6598 20.9631 20.6575C21.1867 20.2326 20.4321 19.0882 17.6455 15.7532C17.639 15.7454 17.6382 15.734 17.6436 15.7255C18.7034 14.0642 19.0898 13.0132 19.2278 11.0144C19.2283 11.0077 19.2258 11.001 19.221 10.9963L16.5186 8.3166C16.504 8.30212 16.4792 8.31244 16.4792 8.333V9.05356C16.4792 9.05964 16.4816 9.06548 16.4859 9.0698L18.3197 10.9266C18.3246 10.9315 18.327 10.9386 18.3262 10.9456C18.112 12.8036 17.741 13.6253 16.8879 14.8621C16.8797 14.874 16.8626 14.8757 16.8524 14.8655L14.0235 12.0366C14.009 12.0221 13.9841 12.0324 13.9841 12.053V12.7732C13.9841 12.7793 13.9864 12.7851 13.9907 12.7894L16.465 15.3096C16.4732 15.3179 16.4738 15.331 16.4666 15.3402C13.691 18.8691 8.50904 18.8871 5.5666 16.3736C5.55156 16.3608 5.52824 16.3714 5.52824 16.3912ZM17.1492 16.2944C18.2267 17.6427 18.5185 18.0662 18.4661 18.212C18.2772 18.2244 17.9682 18.0363 16.5486 16.8951C16.7974 16.6676 16.9316 16.5375 17.1492 16.2944Z" fill="white"/>
<path d="M4.3163 2.772C2.86246 1.62745 1.84771 0.828583 1.37302 1.03156C1.37076 1.03253 1.36868 1.03389 1.36688 1.03556C1.15603 1.23236 1.46597 1.77038 2.01596 2.63092C2.03086 2.65424 1.99958 2.6795 1.98001 2.65993L1.03944 1.71935C1.02489 1.7048 1 1.71511 1 1.73569V2.45591C1 2.462 1.00241 2.46786 1.00671 2.47218L4.14642 5.6348C4.15632 5.6448 4.17274 5.64368 4.18123 5.63252L4.66238 4.99824C4.66886 4.98972 4.66857 4.9778 4.66176 4.96952C4.04708 4.22311 3.56578 3.5507 3.7724 3.45887C3.90406 3.40036 4.23842 3.66276 4.63092 3.9708C4.847 4.14038 5.08072 4.3238 5.30792 4.4751C5.3232 4.48528 5.34344 4.4742 5.34344 4.45585V3.58576C5.34344 3.57859 5.34004 3.57177 5.33436 3.5674C4.97464 3.29029 4.63489 3.02281 4.3163 2.772Z" fill="white"/>
<path fill-rule="evenodd" clip-rule="evenodd" d="M5.52824 16.3912V16.7462C5.52824 16.7528 5.5312 16.7591 5.53604 16.7635C9.99768 20.7841 14.7413 18.375 15.9799 17.3459C15.9886 17.3387 16.0005 17.3396 16.0091 17.347C18.695 19.6484 20.599 20.9718 20.9584 20.6635C20.9604 20.6618 20.9619 20.6598 20.9631 20.6575C21.1867 20.2326 20.4321 19.0882 17.6455 15.7532C17.639 15.7454 17.6382 15.734 17.6436 15.7255C18.7034 14.0642 19.0898 13.0132 19.2278 11.0144C19.2283 11.0077 19.2258 11.001 19.221 10.9963L16.5186 8.3166C16.504 8.30212 16.4792 8.31244 16.4792 8.333V9.05356C16.4792 9.05964 16.4816 9.06548 16.4859 9.0698L18.3197 10.9266C18.3246 10.9315 18.327 10.9386 18.3262 10.9456C18.112 12.8036 17.741 13.6253 16.8879 14.8621C16.8797 14.874 16.8626 14.8757 16.8524 14.8655L14.0235 12.0366C14.009 12.0221 13.9841 12.0324 13.9841 12.053V12.7732C13.9841 12.7793 13.9864 12.7851 13.9907 12.7894L16.465 15.3096C16.4732 15.3179 16.4738 15.331 16.4666 15.3402C13.691 18.8691 8.50904 18.8871 5.5666 16.3736C5.55156 16.3608 5.52824 16.3714 5.52824 16.3912ZM17.1492 16.2944C18.2267 17.6427 18.5185 18.0662 18.4661 18.212C18.2772 18.2244 17.9682 18.0363 16.5486 16.8951C16.7974 16.6676 16.9316 16.5375 17.1492 16.2944Z" fill="white"/>
<path d="M4.3163 2.772C2.86246 1.62745 1.84771 0.828583 1.37302 1.03156C1.37076 1.03253 1.36868 1.03389 1.36688 1.03556C1.15603 1.23236 1.46597 1.77038 2.01596 2.63092C2.03086 2.65424 1.99958 2.6795 1.98001 2.65993L1.03944 1.71935C1.02489 1.7048 1 1.71511 1 1.73569V2.45591C1 2.462 1.00241 2.46786 1.00671 2.47218L4.14642 5.6348C4.15632 5.6448 4.17274 5.64368 4.18123 5.63252L4.66238 4.99824C4.66886 4.98972 4.66857 4.9778 4.66176 4.96952C4.04708 4.22311 3.56578 3.5507 3.7724 3.45887C3.90406 3.40036 4.23842 3.66276 4.63092 3.9708C4.847 4.14038 5.08072 4.3238 5.30792 4.4751C5.3232 4.48528 5.34344 4.4742 5.34344 4.45585V3.58576C5.34344 3.57859 5.34004 3.57177 5.33436 3.5674C4.97464 3.29029 4.63489 3.02281 4.3163 2.772ZM5.52824 16.3912V16.7462C5.52824 16.7528 5.5312 16.7591 5.53604 16.7635C9.99768 20.7841 14.7413 18.375 15.9799 17.3459C15.9886 17.3387 16.0005 17.3396 16.0091 17.347C18.695 19.6484 20.599 20.9718 20.9584 20.6635C20.9604 20.6618 20.9619 20.6598 20.9631 20.6575C21.1867 20.2326 20.4321 19.0882 17.6455 15.7532C17.639 15.7454 17.6382 15.734 17.6436 15.7255C18.7034 14.0642 19.0898 13.0132 19.2278 11.0144C19.2283 11.0077 19.2258 11.001 19.221 10.9963L16.5186 8.3166C16.504 8.30212 16.4792 8.31244 16.4792 8.333V9.05356C16.4792 9.05964 16.4816 9.06548 16.4859 9.0698L18.3197 10.9266C18.3246 10.9315 18.327 10.9386 18.3262 10.9456C18.112 12.8036 17.741 13.6253 16.8879 14.8621C16.8797 14.874 16.8626 14.8757 16.8524 14.8655L14.0235 12.0366C14.009 12.0221 13.9841 12.0324 13.9841 12.053V12.7732C13.9841 12.7793 13.9864 12.7851 13.9907 12.7894L16.465 15.3096C16.4732 15.3179 16.4738 15.331 16.4666 15.3402C13.691 18.8691 8.50904 18.8871 5.5666 16.3736C5.55156 16.3608 5.52824 16.3714 5.52824 16.3912ZM17.1492 16.2944C18.2267 17.6427 18.5185 18.0662 18.4661 18.212C18.2772 18.2244 17.9682 18.0363 16.5486 16.8951C16.7974 16.6676 16.9316 16.5375 17.1492 16.2944Z" stroke="white" stroke-width="0.3"/>
</svg>
