<svg width="20" height="20" viewBox="0 0 20 20" fill="none" xmlns="http://www.w3.org/2000/svg">
<path fill-rule="evenodd" clip-rule="evenodd" d="M0.232759 12.2958C0.0150285 11.9187 -0.0531391 11.4736 0.0417594 11.0486C0.136658 10.6237 0.3877 10.2499 0.745159 10.0013L14.6755 0.310833C14.87 0.175558 15.0902 0.0815244 15.3225 0.0345176C15.5547 -0.0124892 15.7942 -0.0114747 16.026 0.0374987C16.2579 0.0864721 16.4772 0.182368 16.6706 0.319288C16.864 0.456207 17.0274 0.631252 17.1506 0.833655L19.6067 4.86685C19.7332 5.07465 19.8146 5.30672 19.8458 5.54802C19.8769 5.78931 19.8569 6.03445 19.7873 6.26755C19.7176 6.50066 19.5997 6.71652 19.4413 6.90116C19.2829 7.0858 19.0874 7.2351 18.8676 7.33939L3.44177 14.6606C3.04738 14.8479 2.59693 14.8797 2.18011 14.7499C1.76328 14.62 1.41065 14.3379 1.19242 13.9598L0.232759 12.2958ZM4.80354 8.76456L11.6141 4.02703L14.0953 8.16097L6.52919 11.7521L4.80354 8.76456ZM3.73097 9.51144L1.48857 11.0712C1.39939 11.1334 1.3368 11.2268 1.31316 11.333C1.28952 11.4391 1.30656 11.5502 1.36091 11.6444L2.32057 13.3075C2.37524 13.4021 2.46352 13.4725 2.56782 13.5049C2.67211 13.5372 2.78477 13.5291 2.88334 13.4821L5.34807 12.3123L3.73097 9.51144ZM15.2773 7.6008L12.6858 3.28101L15.4198 1.37906C15.4684 1.34518 15.5235 1.32164 15.5817 1.30989C15.6398 1.29813 15.6997 1.2984 15.7577 1.31069C15.8158 1.32297 15.8706 1.34702 15.919 1.38133C15.9674 1.41564 16.0082 1.4595 16.039 1.5102L18.4933 5.54339C18.525 5.59531 18.5454 5.6533 18.5532 5.71362C18.5611 5.77394 18.5562 5.83523 18.5388 5.89353C18.5215 5.95183 18.492 6.00583 18.4525 6.05203C18.4129 6.09823 18.3641 6.13561 18.3092 6.16174L15.2782 7.59993L15.2773 7.6008Z" fill="white"/>
<path d="M14.7771 19.0178C14.9224 18.9244 15.0247 18.7772 15.0615 18.6085C15.0983 18.4398 15.0666 18.2634 14.9734 18.118L11.4995 12.6996C11.415 12.5679 11.2859 12.471 11.1358 12.4267C10.9857 12.3824 10.8247 12.3935 10.6822 12.4582L8.29393 13.5438C8.1811 13.5952 8.08529 13.6777 8.01776 13.7817L5.19522 18.1145C5.1065 18.2591 5.0777 18.4327 5.11494 18.5982C5.15218 18.7637 5.25253 18.9081 5.39463 19.0008C5.53674 19.0934 5.70939 19.127 5.87586 19.0943C6.04233 19.0617 6.18948 18.9653 6.28602 18.8258L9.00521 14.6519L9.44813 14.4505V19.3486C9.44813 19.5214 9.51676 19.6871 9.63891 19.8092C9.76107 19.9314 9.92674 20 10.0995 20C10.2722 20 10.4379 19.9314 10.5601 19.8092C10.6822 19.6871 10.7508 19.5214 10.7508 19.3486V13.9467L13.8773 18.8215C13.9707 18.9668 14.1179 19.0691 14.2866 19.1059C14.4553 19.1427 14.6317 19.111 14.7771 19.0178Z" fill="white"/>
</svg>
