<svg width="20" height="20" viewBox="0 0 20 20" fill="none" xmlns="http://www.w3.org/2000/svg">
<path d="M14.7771 19.0178C14.9224 18.9244 15.0247 18.7772 15.0615 18.6085C15.0983 18.4398 15.0666 18.2634 14.9734 18.118L11.4995 12.6996C11.4148 12.5681 11.2857 12.4714 11.1356 12.4272C10.9856 12.383 10.8246 12.3943 10.6822 12.459L8.29393 13.5446C8.18121 13.5958 8.08541 13.6781 8.01776 13.7817L5.19522 18.1145C5.1065 18.2591 5.0777 18.4327 5.11494 18.5982C5.15218 18.7637 5.25253 18.9081 5.39463 19.0008C5.53674 19.0934 5.70939 19.127 5.87586 19.0943C6.04233 19.0617 6.18948 18.9653 6.28602 18.8258L9.00521 14.6519L9.44813 14.4505V19.3486C9.44813 19.5214 9.51676 19.6871 9.63891 19.8092C9.76107 19.9314 9.92674 20 10.0995 20C10.2722 20 10.4379 19.9314 10.5601 19.8092C10.6822 19.6871 10.7508 19.5214 10.7508 19.3486V13.9467L13.8773 18.8215C13.9707 18.9668 14.1179 19.0691 14.2866 19.1059C14.4553 19.1427 14.6317 19.111 14.7771 19.0178Z" fill="white"/>
<path fill-rule="evenodd" clip-rule="evenodd" d="M0.232759 12.2958C0.0150285 11.9187 -0.0531391 11.4736 0.0417594 11.0486C0.136658 10.6237 0.3877 10.2499 0.745159 10.0013L14.6755 0.310833C14.87 0.175558 15.0902 0.0815244 15.3225 0.0345176C15.5547 -0.0124892 15.7942 -0.0114747 16.026 0.0374987C16.2579 0.0864721 16.4772 0.182368 16.6706 0.319288C16.864 0.456207 17.0274 0.631252 17.1506 0.833655L19.6067 4.86685C19.7332 5.07465 19.8146 5.30672 19.8458 5.54802C19.8769 5.78931 19.8569 6.03445 19.7873 6.26755C19.7176 6.50066 19.5997 6.71652 19.4413 6.90116C19.2829 7.0858 19.0874 7.2351 18.8676 7.33939L3.44177 14.6606C3.04738 14.8479 2.59693 14.8797 2.18011 14.7499C1.76328 14.62 1.41065 14.3379 1.19242 13.9598L0.232759 12.2958ZM4.80354 8.76456L6.52919 11.7521L5.34807 12.3123L3.73097 9.51144L4.80354 8.76456ZM11.6141 4.02703L14.0953 8.16097L15.2773 7.59993L12.6858 3.28101L11.6141 4.02703Z" fill="white"/>
</svg>
