<svg width="350" height="350" viewBox="0 0 350 350" fill="none" xmlns="http://www.w3.org/2000/svg">
<mask id="mask0_426_160" style="mask-type:alpha" maskUnits="userSpaceOnUse" x="0" y="0" width="350" height="350">
<path d="M60 350C26.8629 350 -1.17422e-06 323.137 -2.62268e-06 290L-1.5299e-05 0L350 -1.5299e-05L350 350L60 350Z" fill="#C4C4C4"/>
</mask>
<g mask="url(#mask0_426_160)">
<path fill-rule="evenodd" clip-rule="evenodd" d="M0 -290C0 -323.137 26.8629 -350 60 -350H640C673.137 -350 700 -323.137 700 -290V-285C700 -279.477 695.523 -275 690 -275H685C679.477 -275 675 -279.477 675 -285V-300C675 -313.807 663.807 -325 650 -325L537.5 -325C530.596 -325 525 -319.404 525 -312.5C525 -305.596 530.596 -300 537.5 -300H590C623.137 -300 650 -273.137 650 -240V87.5C650 94.4036 655.596 100 662.5 100C669.404 100 675 94.4036 675 87.5V-165C675 -170.523 679.477 -175 685 -175H690C695.523 -175 700 -170.523 700 -165V290C700 323.137 673.137 350 640 350H60C26.8629 350 0 323.137 0 290V236C0 230.477 4.47715 226 10 226H15C20.5228 226 25 221.523 25 216V86C25 80.4771 20.5228 76 15 76H10C4.47715 76 0 71.5229 0 66V-65C0 -70.5229 4.47715 -75 10 -75H15C20.5228 -75 25 -79.4771 25 -85V-165C25 -170.523 20.5228 -175 15 -175H10C4.47715 -175 0 -179.477 0 -185V-290ZM350 -262.5C350 -255.603 344.414 -250.011 337.52 -250H160C126.863 -250 100 -223.137 100 -190V190C100 223.137 126.863 250 160 250H512.5C519.404 250 525 255.596 525 262.5C525 269.404 519.404 275 512.5 275H187.5C180.596 275 175 280.596 175 287.5C175 294.404 169.404 300 162.5 300H75C61.1929 300 50 288.807 50 275L50 188.5C50 181.596 55.5965 176 62.5 176C69.4036 176 75 170.404 75 163.5L75 0V-250V-275C75 -288.807 86.1929 -300 100 -300L262.5 -300C269.404 -300 275 -294.404 275 -287.5C275 -280.596 280.596 -275 287.5 -275L337.5 -275C344.404 -275 350 -269.404 350 -262.5ZM662.5 160C669.404 160 675 165.596 675 172.5V300C675 313.807 663.807 325 650 325H337.5C330.596 325 325 319.404 325 312.5C325 305.596 330.596 300 337.5 300H590C623.137 300 650 273.137 650 240V172.5C650 165.596 655.596 160 662.5 160ZM120 -190C120 -212.091 137.909 -230 160 -230H540C562.091 -230 580 -212.091 580 -190V190C580 212.091 562.091 230 540 230H160C137.909 230 120 212.091 120 190V-190Z" fill="white"/>
</g>
</svg>
