<svg width="700" height="700" viewBox="0 0 700 700" fill="none" xmlns="http://www.w3.org/2000/svg">
<path fill-rule="evenodd" clip-rule="evenodd" d="M55.5514 180C50.7684 177.239 49.118 171.113 52.0149 166.411C90.5887 103.8 147.962 54.8494 216.061 26.6421C284.159 -1.56516 359.342 -7.52146 430.89 9.47572C436.264 10.7522 439.428 16.2506 437.999 21.5853L434.569 34.3838C434.332 35.2699 434.782 36.2519 435.667 36.4937C452.214 41.0154 468.422 46.852 484.13 53.9693C493.349 58.1466 502.351 62.744 511.107 67.7421C511.904 68.1968 512.916 67.8206 513.375 67.0262L520 55.5513C522.761 50.7684 528.886 49.1172 533.588 52.0142C576.388 78.3833 613.042 113.686 641.014 155.55C670.841 200.188 689.998 251.089 697.006 304.316C704.013 357.542 698.682 411.667 681.426 462.504C665.241 510.181 638.974 553.768 604.457 590.316C600.664 594.331 594.322 594.322 590.416 590.416L581.047 581.047C580.398 580.398 579.323 580.297 578.671 580.943C563.966 595.503 547.863 608.666 530.56 620.228C525.102 623.875 519.542 627.351 513.889 630.652C513.097 631.114 512.916 632.179 513.375 632.974L520 644.449C522.761 649.232 521.128 655.362 516.268 657.985C440.676 698.797 352.69 710.381 269.11 690.524C263.736 689.248 260.572 683.749 262.002 678.415L265.431 665.616C265.578 665.067 265.768 664.541 265.997 664.041C266.015 664.001 265.993 663.955 265.951 663.944C265.914 663.934 265.892 663.896 265.902 663.859L269.766 649.437C271.196 644.102 268.024 638.635 262.74 637.029C234.703 628.505 207.93 615.879 183.329 599.441C147.296 575.364 117.034 543.854 94.4807 507.194C92.0571 503.254 86.945 501.875 82.9392 504.188C78.9334 506.5 77.5514 511.629 79.9692 515.572C104.539 555.643 137.803 589.873 177.451 615.627C185.151 620.628 187.903 630.76 183.312 638.711C178.722 646.663 168.529 649.42 160.804 644.457C100.876 605.954 54.0018 549.991 26.6422 483.939C-0.717518 417.887 -7.14339 345.171 8.00557 275.569C9.95829 266.598 19.1156 261.34 27.9845 263.716C36.8534 266.093 42.0709 275.203 40.163 284.185C30.3386 330.43 31.0213 378.155 41.982 423.863C43.0606 428.361 47.6645 431.011 52.1324 429.813C56.6003 428.616 59.2398 424.026 58.1678 419.527C49.7274 384.098 47.7711 347.268 52.5667 310.842C57.291 274.958 68.4458 240.391 85.3377 208.742C87.9381 203.87 86.3151 197.761 81.5322 195L68.6022 187.535C68.5689 187.516 68.5574 187.473 68.5767 187.44C68.5984 187.402 68.5809 187.354 68.5403 187.339C68.0249 187.147 67.5186 186.909 67.0262 186.625L55.5514 180ZM513.407 594.556C507.481 598.516 501.422 602.253 495.244 605.761C495.207 605.782 495.165 605.794 495.123 605.798C491.372 606.111 487.604 604.183 485.681 600.631L484.014 597.553C481.385 592.696 475.324 590.908 470.374 593.357C432.533 612.074 390.801 621.731 348.493 621.496C345.941 621.482 343.347 620.526 342.162 618.265C341.151 616.334 340.613 614.113 340.696 611.772C340.897 606.13 344.649 601.473 349.728 599.656C349.89 599.598 350 599.446 350 599.274C350 599.054 349.821 598.875 349.6 598.875C311.563 598.814 274.043 590.034 239.925 573.209C205.688 556.325 175.793 531.791 152.554 501.506C129.315 471.22 113.355 435.994 105.907 398.553C98.4596 361.112 99.725 322.46 109.605 285.586C119.485 248.713 137.716 214.606 162.886 185.905C188.056 157.204 219.491 134.678 254.76 120.07C290.028 105.461 328.185 99.1612 366.277 101.658C404.336 104.152 441.312 115.361 474.35 134.417C474.398 134.445 474.46 134.429 474.488 134.38C474.516 134.332 474.499 134.27 474.451 134.242C468.546 130.794 466.064 123.391 469.091 117.229C470.309 114.748 472.237 112.842 474.501 111.656C476.536 110.589 478.95 111.066 480.963 112.174C498.238 121.687 514.475 133.081 529.364 146.184C533.51 149.833 539.828 149.678 543.627 145.669L546.034 143.129C548.775 140.235 552.842 139.336 556.351 140.537C556.477 140.58 556.594 140.647 556.689 140.741C561.678 145.669 566.497 150.781 571.135 156.07C598.74 187.547 619.307 224.556 631.46 264.62C632.55 268.211 633.569 271.82 634.519 275.444C634.569 275.634 634.564 275.834 634.524 276.027C633.777 279.617 630.983 282.637 627.147 283.557L623.744 284.373C618.373 285.66 615.082 291.057 616.172 296.471C628.078 355.663 619.906 417.169 592.943 471.207C590.478 476.149 592.244 482.217 597.092 484.863L600.164 486.54C603.391 488.301 605.268 491.587 605.333 494.99C605.343 495.545 605.268 496.11 604.991 496.592C603.303 499.528 601.563 502.437 599.772 505.318C577.663 540.872 548.219 571.296 513.407 594.556ZM358.436 41.7707C358.384 45.0203 356.563 47.8207 353.905 49.3207C352.931 49.8704 351.793 50.0033 350.675 50.0008C317.803 49.927 284.987 55.2557 253.568 65.921C209.885 80.7496 170.338 105.407 137.898 137.838C137.881 137.854 137.855 137.854 137.838 137.838C137.823 137.823 137.798 137.821 137.781 137.835C134.326 140.557 129.319 140.442 126.085 137.327C124.078 135.395 123.193 132.73 123.467 130.173C123.616 128.782 124.458 127.596 125.445 126.604C154.789 97.1081 189.85 73.4884 228.785 57.3611C267.704 41.2405 309.179 33.1503 350.769 33.2508C351.54 33.2527 352.318 33.3226 353.036 33.6062C356.254 34.8785 358.495 38.079 358.436 41.7707Z" fill="white"/>
<circle cx="350" cy="350" r="240" stroke="white" stroke-width="20"/>
</svg>
