<svg width="23" height="23" viewBox="0 0 23 23" fill="none" xmlns="http://www.w3.org/2000/svg">
<path d="M5.52846 16.8363C5.52832 16.8353 5.52824 16.8343 5.52824 16.8332V16.4783C5.52824 16.4585 5.55156 16.4478 5.5666 16.4607C8.50904 18.9741 13.691 18.9561 16.4666 15.4272C16.4738 15.4181 16.4732 15.4049 16.465 15.3966L13.9907 12.8765C13.9864 12.8721 13.9841 12.8663 13.9841 12.8603V12.14C13.9841 12.1194 14.009 12.1091 14.0235 12.1237L16.8524 14.9525C16.8626 14.9627 16.8797 14.961 16.8879 14.9491C17.741 13.7123 18.112 12.8906 18.3262 11.0326C18.327 11.0257 18.3246 11.0185 18.3197 11.0136L16.4859 9.15682C16.4816 9.1525 16.4792 9.14666 16.4792 9.14058V8.42002C16.4792 8.39946 16.504 8.38914 16.5186 8.40362L18.9989 10.863C18.9257 6.50793 15.3725 3 11 3C6.58172 3 3 6.58172 3 11C3 13.3019 3.97223 15.3768 5.52846 16.8363Z" fill="white"/>
<path d="M6.12833 17.3461C6.05352 17.2886 5.97976 17.2298 5.90708 17.1697C5.98079 17.2302 6.05454 17.289 6.12833 17.3461Z" fill="white"/>
<path d="M3.7397 3.72217C3.81236 3.77905 3.88619 3.83727 3.96118 3.89683C4.02722 3.83139 4.09416 3.76686 4.16199 3.70327C3.98504 3.58179 3.84656 3.51293 3.7724 3.54589C3.71948 3.5694 3.71169 3.631 3.7397 3.72217Z" fill="white"/>
<path d="M3.76847 3.79872C3.79289 3.85506 3.82677 3.91914 3.86869 3.98969C3.87805 3.98017 3.88743 3.97067 3.89683 3.96118C3.85333 3.90641 3.81054 3.85226 3.76847 3.79872Z" fill="white"/>
<path fill-rule="evenodd" clip-rule="evenodd" d="M3.18809 4.75649C2.98316 5.01257 2.79056 5.27894 2.61118 5.55472L2.53231 5.45707C1.71624 4.44418 1.06671 3.55479 0.65422 2.86076C0.452192 2.52084 0.276766 2.17815 0.179015 1.86353C0.130597 1.7077 0.0833413 1.50347 0.0898152 1.28003C0.0964639 1.05055 0.165108 0.716027 0.440566 0.440568C0.716025 0.16511 1.05054 0.0964659 1.28003 0.0898171C1.50347 0.0833433 1.70769 0.130599 1.86353 0.179016C2.17815 0.276768 2.52084 0.452194 2.86076 0.654222C3.55479 1.06672 4.44418 1.71625 5.45707 2.53231L5.55471 2.61119C5.27511 2.79305 5.00516 2.98852 4.74581 3.19665C4.59906 3.08162 4.45622 2.96917 4.31741 2.85988L4.31631 2.85902C2.86246 1.71446 1.84771 0.915598 1.37303 1.11858C1.37077 1.11954 1.36868 1.1209 1.36689 1.12258C1.15603 1.31937 1.46597 1.85739 2.01596 2.71794C2.03086 2.74125 1.99958 2.76651 1.98001 2.74694L1.03944 1.80637C1.02489 1.79181 1 1.80212 1 1.82271V2.54292C1 2.54902 1.00241 2.55487 1.00671 2.5592L3.18809 4.75649ZM2.08386 1.2523C2.08318 1.24958 2.08293 1.24826 2.08298 1.24829L2.08386 1.2523Z" fill="white"/>
<path d="M3.97211 7.17468C4.3027 6.56862 4.7094 6.01004 5.17937 5.51178C6.6715 7.25537 8.59357 9.32708 10.7596 11.4931C12.5291 13.2626 14.2357 14.8693 15.7518 16.2118C15.2402 16.6968 14.6744 17.0902 14.0747 17.3964C12.6125 16.0882 11.0023 14.5642 9.34534 12.9073C7.29969 10.8616 5.45668 8.8871 3.97211 7.17468Z" fill="white"/>
<path fill-rule="evenodd" clip-rule="evenodd" d="M17.4541 18.6386C17.1248 18.9171 16.7773 19.1748 16.4135 19.4094C16.5431 19.5159 16.6705 19.6195 16.7956 19.7203C17.8084 20.5364 18.6978 21.1859 19.3919 21.5984C19.7318 21.8004 20.0745 21.9759 20.3891 22.0736C20.5449 22.122 20.7491 22.1693 20.9726 22.1628C21.2021 22.1562 21.5366 22.0875 21.8121 21.8121C22.0875 21.5366 22.1562 21.2021 22.1628 20.9726C22.1693 20.7492 22.122 20.5449 22.0736 20.3891C21.9759 20.0745 21.8004 19.7318 21.5984 19.3919C21.1859 18.6978 20.5364 17.8084 19.7203 16.7956C19.6195 16.6705 19.5159 16.5431 19.4094 16.4135C19.2229 16.7026 19.0219 16.9816 18.8074 17.2492C20.6441 19.5154 21.1517 20.3861 20.9631 20.7445C20.9619 20.7468 20.9604 20.7488 20.9584 20.7505C20.6674 21 19.3646 20.1806 17.4541 18.6386ZM20.1696 21.0043L20.1688 21.0003C20.1694 21.0031 20.1697 21.0044 20.1696 21.0043ZM21.0003 20.1688L21.0043 20.1696C21.0044 20.1697 21.003 20.1694 21.0003 20.1688Z" fill="white"/>
<path d="M18.3487 18.2825C18.2881 18.2063 18.2262 18.1289 18.1629 18.0503L18.1309 18.0107C18.1802 17.9606 18.2289 17.91 18.2772 17.8588C18.4415 18.1062 18.4902 18.232 18.4661 18.299C18.4326 18.3012 18.3953 18.2971 18.3487 18.2825Z" fill="white"/>
<path d="M17.4252 14.1069C16.1106 12.6362 14.5764 11.0145 12.9073 9.34535C10.8616 7.29969 8.88709 5.45668 7.17468 3.97212C6.56861 4.3027 6.01003 4.7094 5.51178 5.17937C7.25537 6.6715 9.32708 8.59358 11.4931 10.7596C13.2591 12.5256 14.863 14.2289 16.2038 15.7428C16.2936 15.6409 16.3813 15.5357 16.4666 15.4272C16.4738 15.4181 16.4732 15.4049 16.465 15.3966L13.9907 12.8765C13.9864 12.8721 13.9841 12.8663 13.9841 12.8603V12.14C13.9841 12.1194 14.009 12.1091 14.0235 12.1237L16.8524 14.9525C16.8626 14.9627 16.8797 14.961 16.8879 14.9491C17.0935 14.651 17.2711 14.377 17.4252 14.1069Z" fill="white"/>
</svg>
