<svg width="24" height="24" viewBox="0 0 24 24" fill="none" xmlns="http://www.w3.org/2000/svg">
<path fill-rule="evenodd" clip-rule="evenodd" d="M2.23276 14.2958C2.01503 13.9187 1.94686 13.4736 2.04176 13.0486C2.13666 12.6237 2.3877 12.2499 2.74516 12.0013L16.6755 2.31083C16.87 2.17556 17.0902 2.08152 17.3225 2.03452C17.5547 1.98751 17.7942 1.98853 18.026 2.0375C18.2579 2.08647 18.4772 2.18237 18.6706 2.31929C18.864 2.45621 19.0274 2.63125 19.1506 2.83365L21.6067 6.86685C21.7332 7.07465 21.8146 7.30672 21.8458 7.54802C21.8769 7.78931 21.8569 8.03445 21.7873 8.26755C21.7176 8.50066 21.5997 8.71652 21.4413 8.90116C21.2829 9.0858 21.0874 9.2351 20.8676 9.33939L5.44177 16.6606C5.04738 16.8479 4.59693 16.8797 4.18011 16.7499C3.76328 16.62 3.41065 16.3379 3.19242 15.9598L2.23276 14.2958ZM6.80354 10.7646L13.6141 6.02703L16.0953 10.161L8.52919 13.7521L6.80354 10.7646ZM5.73097 11.5114L3.48857 13.0712C3.39939 13.1334 3.3368 13.2268 3.31316 13.333C3.28952 13.4391 3.30656 13.5502 3.36091 13.6444L4.32057 15.3075C4.37524 15.4021 4.46352 15.4725 4.56782 15.5049C4.67211 15.5372 4.78477 15.5291 4.88334 15.4821L7.34807 14.3123L5.73097 11.5114ZM17.2773 9.6008L14.6858 5.28101L17.4198 3.37906C17.4684 3.34518 17.5235 3.32164 17.5817 3.30989C17.6398 3.29813 17.6997 3.2984 17.7577 3.31069C17.8158 3.32297 17.8706 3.34701 17.919 3.38133C17.9674 3.41564 18.0082 3.4595 18.039 3.5102L20.4933 7.54339C20.525 7.59531 20.5454 7.6533 20.5532 7.71362C20.5611 7.77394 20.5562 7.83523 20.5388 7.89353C20.5215 7.95183 20.492 8.00583 20.4525 8.05203C20.4129 8.09823 20.3641 8.13561 20.3092 8.16174L17.2782 9.59993L17.2773 9.6008Z" fill="#002A68"/>
<path d="M16.7771 21.0178C16.9224 20.9244 17.0247 20.7772 17.0615 20.6085C17.0983 20.4398 17.0666 20.2634 16.9734 20.118L13.4995 14.6996C13.415 14.5679 13.2859 14.471 13.1358 14.4267C12.9857 14.3824 12.8247 14.3935 12.6822 14.4582L10.2939 15.5438C10.1811 15.5952 10.0853 15.6777 10.0178 15.7817L7.19522 20.1145C7.1065 20.2591 7.0777 20.4327 7.11494 20.5982C7.15218 20.7637 7.25253 20.9081 7.39463 21.0008C7.53674 21.0934 7.70939 21.127 7.87586 21.0943C8.04233 21.0617 8.18948 20.9653 8.28602 20.8258L11.0052 16.6519L11.4481 16.4505V21.3486C11.4481 21.5214 11.5168 21.6871 11.6389 21.8092C11.7611 21.9314 11.9267 22 12.0995 22C12.2722 22 12.4379 21.9314 12.5601 21.8092C12.6822 21.6871 12.7508 21.5214 12.7508 21.3486V15.9467L15.8773 20.8215C15.9707 20.9668 16.1179 21.0691 16.2866 21.1059C16.4553 21.1427 16.6317 21.111 16.7771 21.0178Z" fill="#002A68"/>
</svg>
